<svg width="20" height="22" viewBox="0 0 20 22" fill="none" xmlns="http://www.w3.org/2000/svg">
<path d="M6 11.2H13" stroke="#484848" stroke-width="1.5" stroke-miterlimit="10" stroke-linecap="round" stroke-linejoin="round"/>
<path d="M6 15.2H10.38" stroke="#484848" stroke-width="1.5" stroke-miterlimit="10" stroke-linecap="round" stroke-linejoin="round"/>
<path d="M8 5H12C14 5 14 4 14 3C14 1 13 1 12 1H8C7 1 6 1 6 3C6 5 7 5 8 5Z" stroke="#484848" stroke-width="1.5" stroke-miterlimit="10" stroke-linecap="round" stroke-linejoin="round"/>
<path d="M14 3.02002C17.33 3.20002 19 4.43002 19 9.00002V15C19 19 18 21 13 21H7C2 21 1 19 1 15V9.00002C1 4.44002 2.67 3.20002 6 3.02002" stroke="#484848" stroke-width="1.5" stroke-miterlimit="10" stroke-linecap="round" stroke-linejoin="round"/>
</svg>
