<svg width="195" height="125" viewBox="0 0 195 125" fill="none" xmlns="http://www.w3.org/2000/svg">
<path d="M0 35.3618L83.9816 5.34473L191.271 11.5237L195 30.9936L140.618 86.9998L11.0215 80.3599L0 35.3618Z" fill="#0957CB"/>
<path d="M195 30.9937L186.882 73.1382L140.618 86.9998C159.229 68.4189 176.136 49.816 195 30.9937Z" fill="#084896"/>
<path d="M164.784 4.11568H158.548C157.514 4.11568 156.522 3.7067 155.79 2.9784C155.058 2.2501 154.646 1.26191 154.643 0.230478V0H146.855V0.230478C146.858 3.32376 148.091 6.28951 150.283 8.47679C152.475 10.6641 155.447 11.8942 158.548 11.8971H164.784C167.885 11.8971 170.859 13.1262 173.052 15.3141C175.245 17.502 176.477 20.4695 176.477 23.5636C176.477 26.6578 175.245 29.6253 173.052 31.8132C170.859 34.0011 167.885 35.2302 164.784 35.2302H162.441V25.1111C162.441 22.017 161.209 19.0495 159.017 16.8616C156.824 14.6737 153.85 13.4446 150.749 13.4446C147.648 13.4446 144.674 14.6737 142.481 16.8616C140.288 19.0495 139.056 22.017 139.056 25.1111V31.334C139.084 31.8624 139.004 32.3909 138.821 32.8873C138.638 33.3838 138.355 33.8378 137.99 34.2217C137.626 34.6056 137.186 34.9113 136.699 35.1203C136.212 35.3292 135.687 35.4369 135.157 35.4369C134.627 35.4369 134.102 35.3292 133.615 35.1203C133.128 34.9113 132.688 34.6056 132.324 34.2217C131.959 33.8378 131.676 33.3838 131.493 32.8873C131.309 32.3909 131.229 31.8624 131.258 31.334V25.2428C131.261 22.9901 130.609 20.7848 129.382 18.8942C128.154 17.0035 126.403 15.5088 124.341 14.591C122.28 13.6733 119.995 13.3721 117.765 13.7237C115.535 14.0754 113.455 15.065 111.777 16.5725C110.1 15.0615 108.019 14.0689 105.787 13.7152C103.555 13.3615 101.269 13.662 99.2046 14.5801C97.1406 15.4983 95.3881 16.9946 94.16 18.8874C92.9319 20.7802 92.2809 22.988 92.2862 25.2428V41.5409H100.096V25.2428C100.096 24.2124 100.506 23.2242 101.236 22.4956C101.967 21.767 102.957 21.3576 103.99 21.3576C105.022 21.3576 106.013 21.767 106.743 22.4956C107.473 23.2242 107.884 24.2124 107.884 25.2428V31.4658C107.882 33.7276 108.541 35.941 109.778 37.836C111.016 39.731 112.78 41.2257 114.854 42.1379C116.929 43.05 119.224 43.3402 121.461 42.9731C123.698 42.606 125.779 41.5974 127.452 40.0703C129.59 41.9701 132.356 43.0144 135.219 43.0022C138.082 42.9901 140.839 41.9224 142.961 40.0044C145.101 41.9294 147.879 42.9966 150.76 43.0006H164.795C169.883 42.88 174.722 40.7787 178.277 37.1456C181.833 33.5126 183.823 28.6361 183.823 23.5582C183.823 18.4802 181.833 13.6037 178.277 9.97068C174.722 6.33766 169.883 4.2363 164.795 4.11568H164.784ZM123.47 31.4658C123.498 31.9941 123.418 32.5226 123.235 33.019C123.052 33.5155 122.769 33.9695 122.404 34.3534C122.039 34.7373 121.6 35.043 121.113 35.252C120.626 35.4609 120.101 35.5686 119.571 35.5686C119.04 35.5686 118.516 35.4609 118.029 35.252C117.541 35.043 117.102 34.7373 116.737 34.3534C116.372 33.9695 116.09 33.5155 115.906 33.019C115.723 32.5226 115.643 31.9941 115.671 31.4658V25.2428C115.724 24.2467 116.158 23.3088 116.884 22.6224C117.609 21.936 118.571 21.5534 119.571 21.5534C120.57 21.5534 121.532 21.936 122.257 22.6224C122.983 23.3088 123.417 24.2467 123.47 25.2428V31.4658ZM154.643 35.2302H150.749C149.715 35.2273 148.725 34.8156 147.995 34.0852C147.265 33.3548 146.855 32.3655 146.855 31.334V25.1111C146.855 24.0807 147.265 23.0925 147.995 22.3639C148.726 21.6353 149.716 21.2259 150.749 21.2259C151.782 21.2259 152.772 21.6353 153.502 22.3639C154.232 23.0925 154.643 24.0807 154.643 25.1111V35.2302Z" fill="#EFEFEF"/>
<path d="M139.089 61.3402C139.036 62.3364 138.602 63.2743 137.877 63.9607C137.151 64.6471 136.19 65.0297 135.19 65.0297C134.19 65.0297 133.229 64.6471 132.503 63.9607C131.778 63.2743 131.344 62.3364 131.291 61.3402V47.3359H123.492V61.3402C123.492 62.3706 123.082 63.3589 122.351 64.0875C121.621 64.8161 120.631 65.2254 119.598 65.2254C118.565 65.2254 117.575 64.8161 116.845 64.0875C116.114 63.3589 115.704 62.3706 115.704 61.3402V47.3359H107.906V61.3402C107.906 62.3706 107.495 63.3589 106.765 64.0875C106.035 64.8161 105.044 65.2254 104.012 65.2254C102.979 65.2254 101.989 64.8161 101.258 64.0875C100.528 63.3589 100.118 62.3706 100.118 61.3402V47.4676H92.3192V75.3335C92.3192 76.365 91.9093 77.3543 91.1794 78.0847C90.4495 78.815 89.4591 79.2268 88.4254 79.2297H84.0256V87.0001H88.4254C91.5217 86.9914 94.4884 85.7588 96.6758 83.5721C98.8632 81.3855 100.093 78.423 100.096 75.3335V72.3264C102.072 73.0353 104.204 73.1943 106.264 72.7864C108.324 72.3784 110.233 71.4189 111.788 70.0106C113.924 71.9387 116.701 73.0063 119.582 73.0063C122.462 73.0063 125.239 71.9387 127.375 70.0106C129.052 71.5181 131.132 72.5076 133.362 72.8593C135.593 73.211 137.877 72.9097 139.939 71.992C142.001 71.0743 143.752 69.5795 144.979 67.6889C146.207 65.7983 146.858 63.5929 146.855 61.3402V47.3359H139.067L139.089 61.3402Z" fill="#EFEFEF"/>
<path d="M90.6253 61.4609V55.2489C90.6253 53.7169 90.3228 52.1998 89.7352 50.7843C89.1476 49.3689 88.2864 48.0828 87.2006 46.9994C86.1149 45.9161 84.8259 45.0567 83.4073 44.4704C81.9887 43.8841 80.4682 43.5824 78.9328 43.5824C77.3973 43.5824 75.8768 43.8841 74.4582 44.4704C73.0396 45.0567 71.7507 45.9161 70.6649 46.9994C69.5791 48.0828 68.7179 49.3689 68.1303 50.7843C67.5427 52.1998 67.2402 53.7169 67.2402 55.2489V61.3401C67.1872 62.3363 66.7532 63.2742 66.0278 63.9606C65.3023 64.647 64.3407 65.0296 63.3409 65.0296C62.3411 65.0296 61.3795 64.647 60.654 63.9606C59.9286 63.2742 59.4946 62.3363 59.4416 61.3401V29.9951H51.6979V61.3401C51.6847 63.5897 52.3247 65.7949 53.5408 67.6892C54.7568 69.5835 56.4968 71.0858 58.5502 72.0145C60.6037 72.9432 62.8829 73.2585 65.1121 72.9223C67.3414 72.5862 69.4253 71.6129 71.1121 70.1203C72.788 71.6377 74.87 72.6363 77.1045 72.9943C79.339 73.3523 81.6296 73.0544 83.6974 72.1367C85.7653 71.2191 87.5211 69.7213 88.7511 67.8259C89.9811 65.9304 90.6323 63.719 90.6253 61.4609ZM75.0389 61.4609V55.2489C75.0108 54.7206 75.0908 54.1921 75.274 53.6957C75.4573 53.1992 75.74 52.7452 76.1048 52.3613C76.4697 51.9774 76.9091 51.6717 77.3962 51.4627C77.8833 51.2538 78.408 51.146 78.9383 51.146C79.4685 51.146 79.9932 51.2538 80.4803 51.4627C80.9675 51.6717 81.4068 51.9774 81.7717 52.3613C82.1366 52.7452 82.4192 53.1992 82.6025 53.6957C82.7857 54.1921 82.8657 54.7206 82.8376 55.2489V61.4609C82.7846 62.457 82.3506 63.3949 81.6252 64.0813C80.8997 64.7677 79.938 65.1503 78.9383 65.1503C77.9385 65.1503 76.9768 64.7677 76.2514 64.0813C75.5259 63.3949 75.092 62.457 75.0389 61.4609Z" fill="#EFEFEF"/>
<path d="M49.993 61.3401V43.1323H42.1943V61.3401C42.1412 62.3362 41.7073 63.2741 40.9818 63.9605C40.2564 64.6469 39.2947 65.0295 38.2949 65.0295C37.2952 65.0295 36.3335 64.6469 35.608 63.9605C34.8826 63.2741 34.4486 62.3362 34.3956 61.3401V55.1171C34.4436 53.5557 34.1768 52.0005 33.6111 50.5439C33.0454 49.0872 32.1922 47.7588 31.1022 46.6373C30.0123 45.5159 28.7077 44.6243 27.2658 44.0154C25.824 43.4065 24.2742 43.0928 22.7086 43.0928C21.1429 43.0928 19.5932 43.4065 18.1513 44.0154C16.7095 44.6243 15.4049 45.5159 14.3149 46.6373C13.2249 47.7588 12.3717 49.0872 11.806 50.5439C11.2403 52.0005 10.9735 53.5557 11.0215 55.1171V73.0615H18.8092V55.1171C18.8623 54.121 19.2962 53.1831 20.0217 52.4967C20.7471 51.8103 21.7088 51.4277 22.7086 51.4277C23.7083 51.4277 24.67 51.8103 25.3955 52.4967C26.1209 53.1831 26.5549 54.121 26.6079 55.1171V61.3401C26.6079 64.4342 27.8398 67.4017 30.0326 69.5896C32.2253 71.7775 35.1994 73.0066 38.3004 73.0066C41.4015 73.0066 44.3755 71.7775 46.5683 69.5896C48.7611 67.4017 49.993 64.4342 49.993 61.3401Z" fill="#EFEFEF"/>
<path d="M50.0039 79.1528H30.5017V86.9342H50.0039V79.1528Z" fill="#EFEFEF"/>
<path d="M83.9816 5.34473L0 35.3618L24.562 14.498L83.9816 5.34473Z" fill="#084896"/>
<rect x="2.69482" y="95.7495" width="185.777" height="29.2201" rx="6.45234" fill="white"/>
<path d="M26.6687 107.166L25.4608 108.608L24.0349 107.4L25.226 105.974L26.6687 107.166ZM20.7635 115.671C20.7635 115.324 20.8362 114.692 20.9816 113.775C21.127 112.858 21.3227 111.706 21.5688 110.319L22.7431 110.588C22.3964 112.5 22.1783 114.033 22.0888 115.185C22.0329 115.844 22.3125 116.286 22.9276 116.51C23.5539 116.745 24.2474 116.862 25.0079 116.862C25.746 116.862 26.4506 116.801 27.1217 116.678C27.7927 116.555 28.3519 116.353 28.7993 116.074L28.1618 109.665L29.6716 109.33C29.8841 111.824 30.0295 113.988 30.1078 115.822C30.1414 116.795 29.6548 117.528 28.6483 118.02C27.6529 118.512 26.3947 118.758 24.8737 118.758C23.2967 118.758 22.2174 118.439 21.6359 117.802C21.0543 117.164 20.7635 116.454 20.7635 115.671ZM40.9571 113.104C41.0018 113.104 41.041 113.171 41.0745 113.306C41.1081 113.44 41.1248 113.613 41.1248 113.826V114.279C41.1248 114.48 41.1081 114.653 41.0745 114.799C41.041 114.933 41.0018 115 40.9571 115H40.5545C39.4025 115 38.6308 114.581 38.2394 113.742C38.1723 113.932 38.1051 114.083 38.038 114.195C37.9821 114.295 37.9094 114.368 37.82 114.413C37.4285 114.648 36.9029 114.843 36.243 115C35.5831 115.145 34.9624 115.218 34.3809 115.218C33.6539 115.218 33.1003 115.056 32.72 114.732C32.3398 114.407 32.1496 113.826 32.1496 112.987C32.1496 112.618 32.1552 112.333 32.1664 112.131L33.3575 112.165V112.567C33.3575 112.825 33.3911 113.004 33.4582 113.104C33.5365 113.205 33.6595 113.266 33.8272 113.289C33.995 113.311 34.3026 113.322 34.7499 113.322C35.2756 113.322 35.818 113.261 36.3772 113.138C36.9364 113.004 37.3782 112.825 37.7025 112.601L36.4275 107.434L37.8367 106.578L38.8601 111.393C38.9831 111.997 39.0949 112.405 39.1956 112.618C39.3074 112.83 39.4752 112.965 39.6989 113.02C39.9337 113.076 40.3531 113.104 40.9571 113.104ZM47.673 105.169L46.4148 104.112L47.4885 102.821L48.7635 103.911L47.673 105.169ZM47.7066 106.461L48.7803 105.186L50.0552 106.26L48.9816 107.535L47.7066 106.461ZM46.4819 107.568L45.2069 106.495L46.2806 105.203L47.5724 106.276L46.4819 107.568ZM52.2865 108.474C52.3647 110.017 52.4039 111.455 52.4039 112.786C52.4039 113.546 52.1299 114.105 51.5819 114.463C51.045 114.821 50.3796 115 49.5855 115C48.6572 115 48.0477 114.67 47.7569 114.01C47.5556 114.335 47.248 114.581 46.8342 114.748C46.4204 114.916 46.0122 115 45.6096 115C44.7037 115 44.1109 114.664 43.8313 113.993C43.3728 114.664 42.4165 115 40.9626 115C40.9179 115 40.8787 114.933 40.8452 114.799C40.8004 114.653 40.7781 114.48 40.7781 114.279V113.826C40.7781 113.624 40.7948 113.457 40.8284 113.322C40.8619 113.177 40.9067 113.104 40.9626 113.104C41.9021 113.104 42.6346 112.97 43.1603 112.702L43.1938 110.118L44.5695 110.152L44.5191 112.165C44.5079 112.567 44.6086 112.825 44.8211 112.937C45.0336 113.048 45.3747 113.104 45.8444 113.104C46.4372 113.104 46.8622 112.987 47.1194 112.752L47.0523 109.464L48.4447 109.43L48.5118 112.836C48.7243 113.015 49.0431 113.104 49.4681 113.104C50.1391 113.104 50.6983 112.987 51.1457 112.752L50.7766 108.743L52.2865 108.474ZM55.471 118.238C56.7796 117.645 57.7749 117.069 58.4572 116.51C59.1506 115.962 59.6259 115.391 59.8831 114.799L59.3295 109.883L60.8226 109.514C60.8673 109.973 60.8953 110.269 60.9065 110.403C60.996 111.276 61.0687 112.047 61.1246 112.718C61.1917 113.389 61.2252 113.91 61.2252 114.279C61.2252 115.352 60.8338 116.331 60.0509 117.214C59.2792 118.098 58.0601 118.937 56.3937 119.731L55.471 118.238ZM64.9426 102.804L65.0768 115L63.7683 115.185L63.4327 103.173L64.9426 102.804ZM71.7408 106.713C72.904 107.842 73.7372 108.916 74.2405 109.934C74.7438 110.951 74.9954 111.896 74.9954 112.769C74.9954 113.082 74.9562 113.362 74.878 113.608C74.7997 113.842 74.6655 114.055 74.4753 114.245C74.151 114.558 73.6757 114.799 73.0494 114.966C72.4231 115.134 71.6681 115.218 70.7846 115.218C69.9793 115.218 69.3642 115.145 68.9392 115C68.5254 114.843 68.2346 114.586 68.0669 114.228C67.8991 113.87 67.8152 113.356 67.8152 112.685C67.8152 112.405 67.8208 112.187 67.832 112.031L69.0399 112.098V112.349C69.0399 112.663 69.0846 112.886 69.1741 113.02C69.2636 113.155 69.4257 113.239 69.6606 113.272C69.8955 113.306 70.2981 113.322 70.8685 113.322C71.3047 113.322 71.8023 113.3 72.3615 113.255C72.9207 113.199 73.3625 113.104 73.6869 112.97C73.6869 112.142 73.4296 111.332 72.9152 110.538C72.4119 109.732 71.6849 108.899 70.7343 108.038L71.7408 106.713ZM85.3229 113.104C85.3677 113.104 85.4068 113.171 85.4403 113.306C85.4739 113.44 85.4907 113.613 85.4907 113.826V114.279C85.4907 114.48 85.4739 114.653 85.4403 114.799C85.4068 114.933 85.3677 115 85.3229 115H84.7022C84.143 115 83.6621 114.866 83.2595 114.597C82.8568 114.329 82.6164 113.921 82.5381 113.373L82.3871 113.691C82.2305 114.072 81.9789 114.284 81.6322 114.329C81.073 114.396 80.6144 114.43 80.2565 114.43C79.4625 114.43 78.8921 114.301 78.5454 114.044C78.1987 113.775 78.0253 113.306 78.0253 112.635C78.0253 111.628 78.3161 110.778 78.8977 110.085C79.4904 109.391 80.374 108.877 81.5483 108.541L81.3973 107.266L82.8233 106.864L83.2595 111.326C83.3154 111.896 83.3769 112.293 83.444 112.517C83.5223 112.73 83.6677 112.881 83.8802 112.97C84.1039 113.06 84.4841 113.104 85.0209 113.104H85.3229ZM80.2062 112.651C80.8661 112.651 81.4868 112.562 82.0684 112.383L81.7999 110.017C80.9276 110.196 80.2845 110.532 79.8707 111.024C79.4569 111.505 79.2388 112.008 79.2164 112.534C79.4848 112.612 79.8148 112.651 80.2062 112.651ZM88.515 106.78L87.089 105.572L88.2801 104.146L89.7228 105.337L88.515 106.78ZM89.5383 108.491L89.5719 108.994C89.639 110.448 89.6725 111.628 89.6725 112.534C89.6725 113.283 89.3314 113.865 88.6492 114.279C88.2242 114.525 87.7041 114.709 87.089 114.832C86.4851 114.944 85.8979 115 85.3275 115C85.2828 115 85.2436 114.933 85.2101 114.799C85.1653 114.653 85.143 114.48 85.143 114.279V113.826C85.143 113.624 85.1597 113.457 85.1933 113.322C85.2268 113.177 85.2716 113.104 85.3275 113.104C86.0209 113.104 86.6137 113.065 87.1058 112.987C87.609 112.909 88.0396 112.774 88.3975 112.584L88.0117 108.743L89.5383 108.491ZM96.2141 113.104C96.2589 113.104 96.298 113.171 96.3316 113.306C96.3651 113.44 96.3819 113.613 96.3819 113.826V114.279C96.3819 114.48 96.3651 114.653 96.3316 114.799C96.298 114.933 96.2589 115 96.2141 115H95.8115C94.7043 115 93.899 114.748 93.3958 114.245C92.8925 113.742 92.6241 112.875 92.5905 111.645L92.3389 103.173L93.8655 102.804L93.9997 111.662C94.0109 112.109 94.1451 112.461 94.4023 112.718C94.6596 112.976 95.0174 113.104 95.476 113.104H96.2141ZM101.406 106.461L99.9968 105.253L101.171 103.827L102.614 105.018L101.406 106.461ZM102.413 108.759C103.363 109.117 104.18 109.397 104.862 109.598C105.555 109.788 106.204 109.883 106.808 109.883L106.439 111.578C105.891 111.611 105.382 111.729 104.912 111.93C104.442 112.131 103.838 112.439 103.1 112.853L102.53 113.171C101.512 113.753 100.567 114.206 99.6948 114.53C98.8336 114.843 97.8326 115 96.6919 115H96.2221C96.1774 115 96.1383 114.933 96.1047 114.799C96.06 114.653 96.0376 114.48 96.0376 114.279V113.826C96.0376 113.624 96.0544 113.457 96.0879 113.322C96.1215 113.177 96.1662 113.104 96.2221 113.104H96.6919C97.4076 113.104 98.1346 113.004 98.8728 112.802C99.6109 112.601 100.383 112.338 101.188 112.014C101.769 111.757 102.2 111.561 102.48 111.427C102.759 111.304 103.123 111.147 103.57 110.957C103.682 110.912 103.794 110.879 103.906 110.856C103.883 110.845 103.85 110.84 103.805 110.84C103.324 110.772 102.625 110.549 101.708 110.168C100.735 109.777 100.036 109.581 99.6109 109.581C99.3201 109.581 99.1132 109.688 98.9902 109.9C98.8672 110.101 98.7665 110.37 98.6882 110.705L97.5307 110.504C97.6761 109.676 97.9053 109.05 98.2185 108.625C98.5316 108.189 98.9958 107.971 99.6109 107.971C99.9017 107.971 100.254 108.038 100.668 108.172C101.093 108.295 101.674 108.491 102.413 108.759ZM116.225 118.825C114.637 118.825 113.552 118.506 112.97 117.869C112.4 117.242 112.115 116.532 112.115 115.738C112.115 115.391 112.187 114.76 112.333 113.842C112.478 112.925 112.674 111.773 112.92 110.387L114.094 110.638C113.747 112.584 113.529 114.122 113.44 115.252C113.384 115.923 113.669 116.37 114.295 116.594C114.922 116.817 115.632 116.929 116.426 116.929C117.332 116.929 118.12 116.857 118.791 116.711C119.474 116.566 120.05 116.303 120.519 115.923C120.553 115.621 120.57 115.369 120.57 115.168C120.57 114.866 120.519 114.659 120.419 114.547C120.329 114.435 120.167 114.351 119.932 114.295L118.976 114.161C118.406 114.083 117.992 114.01 117.735 113.943C117.477 113.876 117.282 113.764 117.147 113.608C117.013 113.451 116.946 113.216 116.946 112.903C116.946 112.031 117.103 111.164 117.416 110.303C117.74 109.43 118.171 108.72 118.708 108.172C119.244 107.613 119.815 107.333 120.419 107.333C120.855 107.333 121.241 107.473 121.576 107.753C121.923 108.021 122.264 108.418 122.6 108.944L121.778 109.766C121.319 109.307 120.877 109.078 120.452 109.078C119.915 109.078 119.446 109.391 119.043 110.017C118.641 110.644 118.389 111.404 118.288 112.299L118.842 112.383C119.647 112.495 120.251 112.612 120.654 112.735C121.056 112.858 121.375 113.088 121.61 113.423C121.845 113.759 121.962 114.262 121.962 114.933C121.962 115.861 121.75 116.583 121.325 117.097C120.877 117.667 120.212 118.098 119.328 118.389C118.456 118.68 117.421 118.825 116.225 118.825ZM128.685 113.104C128.73 113.104 128.769 113.171 128.802 113.306C128.836 113.44 128.853 113.613 128.853 113.826V114.279C128.853 114.48 128.836 114.653 128.802 114.799C128.769 114.933 128.73 115 128.685 115H128.282C127.175 115 126.37 114.748 125.867 114.245C125.363 113.742 125.095 112.875 125.061 111.645L124.81 103.173L126.336 102.804L126.471 111.662C126.482 112.109 126.616 112.461 126.873 112.718C127.13 112.976 127.488 113.104 127.947 113.104H128.685ZM131.511 107.4L130.085 106.193L131.277 104.767L132.719 105.974L131.511 107.4ZM134.883 113.104C134.928 113.104 134.967 113.171 135.001 113.306C135.034 113.44 135.051 113.613 135.051 113.826V114.279C135.051 114.48 135.034 114.653 135.001 114.799C134.967 114.933 134.928 115 134.883 115C133.922 115 133.211 114.911 132.753 114.732C132.306 114.553 132.02 114.256 131.897 113.842C131.674 114.256 131.299 114.553 130.773 114.732C130.248 114.911 129.554 115 128.693 115C128.648 115 128.609 114.933 128.576 114.799C128.531 114.653 128.509 114.48 128.509 114.279V113.826C128.509 113.624 128.525 113.457 128.559 113.322C128.592 113.177 128.637 113.104 128.693 113.104C129.811 113.104 130.645 112.959 131.193 112.668L130.874 109.33L132.384 109.195L132.585 112.769C132.786 112.892 133.055 112.981 133.39 113.037C133.726 113.082 134.224 113.104 134.883 113.104ZM139.13 108.994C139.197 110.448 139.231 111.628 139.231 112.534C139.231 113.283 138.89 113.865 138.207 114.279C137.782 114.525 137.262 114.709 136.647 114.832C136.043 114.944 135.456 115 134.886 115C134.841 115 134.802 114.933 134.768 114.799C134.724 114.653 134.701 114.48 134.701 114.279V113.826C134.701 113.624 134.718 113.457 134.752 113.322C134.785 113.177 134.83 113.104 134.886 113.104C135.579 113.104 136.172 113.065 136.664 112.987C137.167 112.909 137.598 112.774 137.956 112.584L137.57 108.743L139.097 108.491L139.13 108.994ZM136.463 116.996L137.905 118.204L136.698 119.63L135.288 118.439L136.463 116.996ZM151.992 102.77C150.963 103.229 149.845 103.771 148.637 104.398L148.704 103.089C149.834 102.496 150.902 101.993 151.909 101.579L151.992 102.77ZM156.488 113.104C156.533 113.104 156.572 113.171 156.606 113.306C156.639 113.44 156.656 113.613 156.656 113.826V114.279C156.656 114.48 156.639 114.653 156.606 114.799C156.572 114.933 156.533 115 156.488 115H155.062C154.727 115 154.419 114.927 154.14 114.782C153.871 114.625 153.659 114.407 153.502 114.128C153.044 114.452 152.345 114.692 151.405 114.849C150.466 114.994 149.23 115.067 147.698 115.067C146.456 115.067 145.433 114.978 144.628 114.799C143.834 114.62 143.219 114.301 142.782 113.842C142.357 113.384 142.145 112.752 142.145 111.947C142.145 111.701 142.173 111.382 142.229 110.991L142.665 108.39L143.839 108.642L143.453 110.94C143.42 111.141 143.403 111.32 143.403 111.477C143.403 111.98 143.56 112.355 143.873 112.601C144.186 112.847 144.611 113.004 145.148 113.071C145.696 113.138 146.451 113.171 147.413 113.171C148.676 113.171 149.795 113.127 150.768 113.037C151.741 112.937 152.457 112.791 152.915 112.601C152.848 111.471 152.451 110.442 151.724 109.514C150.997 108.586 149.946 107.646 148.57 106.696L148.62 105.119C150.41 104.135 152.294 103.296 154.274 102.602L154.459 104.196C152.915 104.789 151.5 105.393 150.214 106.008C150.326 106.075 150.483 106.187 150.684 106.344C151.892 107.339 152.753 108.318 153.267 109.279C153.793 110.241 154.084 111.27 154.14 112.366C154.207 112.679 154.324 112.881 154.492 112.97C154.66 113.06 154.928 113.104 155.297 113.104H156.488ZM159.346 107.4L157.92 106.193L159.111 104.767L160.554 105.974L159.346 107.4ZM162.718 113.104C162.763 113.104 162.802 113.171 162.835 113.306C162.869 113.44 162.886 113.613 162.886 113.826V114.279C162.886 114.48 162.869 114.653 162.835 114.799C162.802 114.933 162.763 115 162.718 115C161.756 115 161.046 114.911 160.587 114.732C160.14 114.553 159.855 114.256 159.732 113.842C159.508 114.256 159.134 114.553 158.608 114.732C158.082 114.911 157.389 115 156.528 115C156.483 115 156.444 114.933 156.41 114.799C156.365 114.653 156.343 114.48 156.343 114.279V113.826C156.343 113.624 156.36 113.457 156.393 113.322C156.427 113.177 156.472 113.104 156.528 113.104C157.646 113.104 158.479 112.959 159.027 112.668L158.709 109.33L160.218 109.195L160.42 112.769C160.621 112.892 160.889 112.981 161.225 113.037C161.56 113.082 162.058 113.104 162.718 113.104ZM174.044 108.474C174.123 110.017 174.162 111.455 174.162 112.786C174.162 113.546 173.888 114.105 173.34 114.463C172.803 114.821 172.137 115 171.343 115C170.415 115 169.805 114.67 169.515 114.01C169.313 114.335 169.006 114.581 168.592 114.748C168.178 114.916 167.77 115 167.367 115C166.461 115 165.869 114.664 165.589 113.993C165.131 114.664 164.174 115 162.72 115C162.676 115 162.636 114.933 162.603 114.799C162.558 114.653 162.536 114.48 162.536 114.279V113.826C162.536 113.624 162.553 113.457 162.586 113.322C162.62 113.177 162.664 113.104 162.72 113.104C163.66 113.104 164.392 112.97 164.918 112.702L164.952 110.118L166.327 110.152L166.277 112.165C166.266 112.567 166.366 112.825 166.579 112.937C166.791 113.048 167.132 113.104 167.602 113.104C168.195 113.104 168.62 112.987 168.877 112.752L168.81 109.464L170.202 109.43L170.27 112.836C170.482 113.015 170.801 113.104 171.226 113.104C171.897 113.104 172.456 112.987 172.903 112.752L172.534 108.743L174.044 108.474Z" fill="#0957CB"/>
</svg>
