<svg width="343" height="283" viewBox="0 0 343 283" fill="none" xmlns="http://www.w3.org/2000/svg">
<path d="M123.679 29.2725H27.7539V126.156H123.679V29.2725Z" fill="url(#paint0_linear_233_7410)"/>
<path d="M115.556 52.1665V48.4795H104.662V37.4766H101.011V48.4795H91.1108V37.4766H87.4603V48.4795H77.5601V37.4766H73.9096V48.4795H64.0094V37.4766H60.3589V48.4795H50.4586V37.4766H46.8082V48.4795H35.9141V52.1665H46.8082V62.1656H35.9141V65.8526H46.8082V75.8517H35.9141V79.5387H46.8082V89.5378H35.9141V93.2248H46.8082V103.224H35.9141V106.911H46.8082V117.914H50.4586V106.911H60.3589V117.914H64.0094V106.911H73.9096V117.914H77.5601V106.911H87.4603V117.914H91.1108V106.911H101.011V117.914H104.662V106.911H115.556V103.224H104.662V93.2248H115.556V89.5378H104.662V79.5387H115.556V75.8517H104.662V65.8526H115.556V62.1656H104.662V52.1665H115.556ZM87.4412 52.1665V62.1656H77.541V52.1665H87.4412ZM73.8905 79.558V89.5571H63.9903V79.558H73.8905ZM63.9903 75.871V65.8719H73.8905V75.871H63.9903ZM77.541 79.558H87.4412V89.5571H77.541V79.558ZM77.541 75.871V65.8719H87.4412V75.871H77.541ZM73.8905 52.1858V62.1849H63.9903V52.1858H73.8905ZM50.4395 52.1858H60.3398V62.1849H50.4395V52.1858ZM50.4395 65.8719H60.3398V75.871H50.4395V65.8719ZM50.4395 79.558H60.3398V89.5571H50.4395V79.558ZM50.4395 103.243V93.2441H60.3398V103.243H50.4395ZM63.9903 103.243V93.2441H73.8905V103.243H63.9903ZM77.541 103.243V93.2441H87.4412V103.243H77.541ZM100.992 103.243H91.0917V93.2441H100.992V103.243ZM100.992 89.5571H91.0917V79.558H100.992V89.5571ZM100.992 75.871H91.0917V65.8719H100.992V75.871ZM100.992 62.1849H91.0917V52.1858H100.992V62.1849Z" fill="url(#paint1_linear_233_7410)"/>
<path d="M89.8679 81.1212H52.7324L71.3097 48.6143L89.887 81.1019L89.8679 81.1212ZM59.3453 77.2605H83.255L71.3097 56.3549L59.3644 77.2605H59.3453Z" fill="white"/>
<path d="M110.835 100.869H52.3125V83.9009H110.835V100.869ZM56.135 97.0079H107.012V87.7616H56.135V97.0079Z" fill="white"/>
<path d="M126.335 84.9854C124.73 83.3833 125.074 80.4298 127.1 78.3451C129.126 76.2603 132.069 75.8742 133.655 77.4764C135.261 79.0786 134.917 82.032 132.891 84.1168C130.865 86.2016 127.941 86.5876 126.335 84.9854Z" fill="#E6534E"/>
<path d="M79.6871 23.2239L75.7324 27.2827L127.825 79.0579L131.78 74.9991L79.6871 23.2239Z" fill="#2CB2F2"/>
<path d="M75.7341 27.2665L71.7773 31.3232L123.843 83.126L127.8 79.0693L75.7341 27.2665Z" fill="#2CB2F2"/>
<path d="M71.7692 31.3601L79.7009 23.2141L73.1453 21.4961L69.9727 24.7584L71.7692 31.3601Z" fill="#F4D9AE"/>
<path d="M69.9736 24.7586L73.1463 21.4963L68.7695 20.3574L69.9736 24.7586Z" fill="#3C3C3C"/>
<path d="M131.78 75.0254L123.869 83.1416L126.035 85.2948L133.945 77.1785L131.78 75.0254Z" fill="#3C3C3C"/>
<g style="mix-blend-mode:screen">
<path d="M77.3129 25.672L73.7598 29.3174L125.844 81.1018L129.397 77.4563L77.3129 25.672Z" fill="#4D4D4D"/>
</g>
<path d="M24.9269 65.1426L11.4609 77.9277L71.9267 142.892L85.3927 130.107L24.9269 65.1426Z" fill="#2CB2F2"/>
<path d="M13.0245 76.4474L11.4648 77.9282L71.9306 142.893L73.4903 141.412L13.0245 76.4474Z" fill="#1C4F6B"/>
<path d="M82.6326 127.175L79.7227 129.938L80.4428 130.712L83.3527 127.948L82.6326 127.175Z" fill="#3C3C3C"/>
<path d="M79.5099 123.836L75.5 127.644L76.2332 128.432L80.2431 124.623L79.5099 123.836Z" fill="#3C3C3C"/>
<path d="M76.4031 120.493L73.4922 123.256L74.2251 124.044L77.136 121.281L76.4031 120.493Z" fill="#3C3C3C"/>
<path d="M73.284 117.145L70.373 119.908L71.0929 120.682L74.0038 117.919L73.284 117.145Z" fill="#3C3C3C"/>
<path d="M70.1843 113.816L67.2734 116.579L67.9933 117.353L70.9042 114.59L70.1843 113.816Z" fill="#3C3C3C"/>
<path d="M67.077 110.473L63.0664 114.281L63.7995 115.068L67.81 111.261L67.077 110.473Z" fill="#3C3C3C"/>
<path d="M61.0508 109.883L63.975 107.123L64.7013 107.895L61.7771 110.675L61.0508 109.883Z" fill="#3C3C3C"/>
<path d="M60.8631 103.786L57.9531 106.549L58.6732 107.323L61.5832 104.559L60.8631 103.786Z" fill="#3C3C3C"/>
<path d="M57.7351 100.449L54.8242 103.212L55.5572 104L58.4681 101.237L57.7351 100.449Z" fill="#3C3C3C"/>
<path d="M54.6434 97.096L50.6328 100.904L51.3528 101.677L55.3634 97.8696L54.6434 97.096Z" fill="#3C3C3C"/>
<path d="M51.5305 93.7392L48.6191 96.5015L49.3389 97.2753L52.2503 94.513L51.5305 93.7392Z" fill="#3C3C3C"/>
<path d="M48.4148 90.4164L45.5039 93.1792L46.2238 93.9529L49.1347 91.1901L48.4148 90.4164Z" fill="#3C3C3C"/>
<path d="M45.3006 87.0834L42.3906 89.8472L43.1238 90.6347L46.0338 87.8709L45.3006 87.0834Z" fill="#3C3C3C"/>
<path d="M42.2033 83.7262L38.1934 87.5347L38.9135 88.3081L42.9234 84.4996L42.2033 83.7262Z" fill="#3C3C3C"/>
<path d="M39.0867 80.3974L36.1758 83.1602L36.9087 83.9479L39.8196 81.1851L39.0867 80.3974Z" fill="#3C3C3C"/>
<path d="M35.9783 77.0488L33.0664 79.8105L33.786 80.5845L36.6979 77.8227L35.9783 77.0488Z" fill="#3C3C3C"/>
<path d="M32.864 73.7206L29.9531 76.4834L30.6861 77.2712L33.597 74.5084L32.864 73.7206Z" fill="#3C3C3C"/>
<path d="M29.7723 70.3538L25.7617 74.1616L26.4817 74.9352L30.4923 71.1274L29.7723 70.3538Z" fill="#3C3C3C"/>
<path d="M26.6258 67.016L23.7148 69.7788L24.4347 70.5525L27.3456 67.7897L26.6258 67.016Z" fill="#3C3C3C"/>
<g clip-path="url(#clip0_233_7410)">
<path d="M60.2867 205.727C55.1397 189.622 65.6174 170.055 86.8025 150.997C86.9863 163.226 88.8705 175.593 92.7766 187.822C98.6588 206.281 108.493 222.248 120.901 235.538C88.6867 233.323 65.8931 223.217 60.3326 205.727H60.2867Z" fill="url(#paint2_linear_233_7410)"/>
<path d="M86.8018 150.95C86.1125 96.266 121.084 44.9964 176.23 27.2297C231.421 9.46305 289.554 30.7369 320.619 75.6382C327.558 85.6521 333.211 96.8659 337.117 109.095C340.529 119.8 342.394 130.615 342.885 141.321C343.563 156.137 335.658 169.819 323.294 178.01C300.16 193.334 270.571 207.483 237.212 218.233C194.106 232.123 152.839 237.661 120.854 235.492C108.446 222.248 98.6122 206.235 92.73 187.776C88.8238 175.547 86.9397 163.133 86.7559 150.95H86.8018Z" fill="url(#paint3_linear_233_7410)"/>
<path d="M89.009 151.551C80.5533 165.026 77.5203 178.224 81.2886 190.038C93.4666 228.109 171.727 237.015 256.284 210.019C249.896 212.419 243.463 214.772 236.799 216.895C151.921 244.214 74.3035 238.769 63.4582 204.712C58.4951 189.068 68.5591 170.102 89.009 151.551Z" fill="url(#paint4_linear_233_7410)"/>
<path d="M217.956 48.9189C183.904 49.6572 153.896 60.3634 134.732 76.4688C147.692 51.6416 179.722 33.6442 217.635 32.8597C255.547 32.0751 288.313 48.6882 302.237 72.9616C282.431 57.6869 251.963 48.2267 217.956 48.965V48.9189Z" fill="url(#paint5_linear_233_7410)"/>
<path d="M264.647 112.556C275.585 118.048 287.763 115.971 291.807 107.803C295.851 99.7271 290.244 88.6518 279.307 83.1603C268.37 77.6688 256.192 79.7454 252.148 87.8673C248.104 95.9892 253.71 107.018 264.647 112.51V112.556Z" fill="url(#paint6_linear_233_7410)"/>
</g>
<g filter="url(#filter0_b_233_7410)">
<ellipse cx="207" cy="273" rx="136" ry="10" fill="url(#paint7_radial_233_7410)"/>
</g>
<defs>
<filter id="filter0_b_233_7410" x="-149" y="43" width="712" height="460" filterUnits="userSpaceOnUse" color-interpolation-filters="sRGB">
<feFlood flood-opacity="0" result="BackgroundImageFix"/>
<feGaussianBlur in="BackgroundImageFix" stdDeviation="110"/>
<feComposite in2="SourceAlpha" operator="in" result="effect1_backgroundBlur_233_7410"/>
<feBlend mode="normal" in="SourceGraphic" in2="effect1_backgroundBlur_233_7410" result="shape"/>
</filter>
<linearGradient id="paint0_linear_233_7410" x1="75.6543" y1="72.0297" x2="76.1651" y2="120.309" gradientUnits="userSpaceOnUse">
<stop stop-color="#0957CB"/>
<stop offset="1" stop-color="#0957CB"/>
</linearGradient>
<linearGradient id="paint1_linear_233_7410" x1="66.7373" y1="124.647" x2="77.985" y2="50.845" gradientUnits="userSpaceOnUse">
<stop stop-color="#0957CB"/>
<stop offset="1" stop-color="#5297FF"/>
</linearGradient>
<linearGradient id="paint2_linear_233_7410" x1="27" y1="269" x2="109.896" y2="221.561" gradientUnits="userSpaceOnUse">
<stop stop-color="#0957CB"/>
<stop offset="1" stop-color="#5297FF"/>
</linearGradient>
<linearGradient id="paint3_linear_233_7410" x1="270.999" y1="13.9998" x2="194.767" y2="209.887" gradientUnits="userSpaceOnUse">
<stop stop-color="#0957CB"/>
<stop offset="1" stop-color="#5297FF"/>
</linearGradient>
<linearGradient id="paint4_linear_233_7410" x1="167.106" y1="221.767" x2="161.8" y2="387.388" gradientUnits="userSpaceOnUse">
<stop stop-color="#8FB5EF"/>
<stop offset="0.461805" stop-color="#0957CB"/>
</linearGradient>
<linearGradient id="paint5_linear_233_7410" x1="225.269" y1="69.863" x2="226.591" y2="101.477" gradientUnits="userSpaceOnUse">
<stop stop-color="#8FB5EF"/>
<stop offset="0.461805" stop-color="#0957CB"/>
</linearGradient>
<linearGradient id="paint6_linear_233_7410" x1="273.69" y1="110.241" x2="277.103" y2="135.563" gradientUnits="userSpaceOnUse">
<stop stop-color="#8FB5EF"/>
<stop offset="0.461805" stop-color="#0957CB"/>
</linearGradient>
<radialGradient id="paint7_radial_233_7410" cx="0" cy="0" r="1" gradientUnits="userSpaceOnUse" gradientTransform="translate(207 273) rotate(90) scale(10 136)">
<stop stop-color="#A2A2A2"/>
<stop offset="1" stop-color="white" stop-opacity="0"/>
</radialGradient>
<clipPath id="clip0_233_7410">
<rect width="284" height="215" fill="white" transform="translate(59 21)"/>
</clipPath>
</defs>
</svg>
