<svg width="172" height="77" viewBox="0 0 172 77" fill="none" xmlns="http://www.w3.org/2000/svg">
<path d="M0 31.1909L74.076 4.71436L168.711 10.1646L172 27.338L124.032 76.7383L9.72157 70.8816L0 31.1909Z" fill="#0957CB"/>
<path d="M172 27.3381L164.84 64.5118L124.032 76.7385C140.448 60.3491 155.361 43.9404 172 27.3381Z" fill="#084896"/>
<path d="M145.348 3.63024H139.847C138.935 3.63025 138.061 3.2695 137.415 2.6271C136.77 1.9847 136.406 1.11307 136.403 0.203294V0H129.534V0.203294C129.536 2.93172 130.624 5.54767 132.557 7.47696C134.491 9.40625 137.113 10.4913 139.847 10.4938H145.348C148.084 10.4938 150.707 11.578 152.641 13.5078C154.575 15.4377 155.662 18.0551 155.662 20.7843C155.662 23.5136 154.575 26.131 152.641 28.0608C150.707 29.9907 148.084 31.0749 145.348 31.0749H143.282V22.1493C143.282 19.4201 142.195 16.8027 140.261 14.8728C138.327 12.943 135.704 11.8588 132.968 11.8588C130.233 11.8588 127.61 12.943 125.676 14.8728C123.742 16.8027 122.655 19.4201 122.655 22.1493V27.6382C122.68 28.1042 122.609 28.5704 122.448 29.0083C122.286 29.4462 122.037 29.8467 121.715 30.1853C121.393 30.5239 121.005 30.7936 120.576 30.9779C120.146 31.1622 119.683 31.2572 119.216 31.2572C118.748 31.2572 118.285 31.1622 117.855 30.9779C117.426 30.7936 117.038 30.5239 116.716 30.1853C116.395 29.8467 116.145 29.4462 115.984 29.0083C115.822 28.5704 115.751 28.1042 115.776 27.6382V22.2655C115.779 20.2785 115.204 18.3333 114.122 16.6656C113.039 14.998 111.494 13.6795 109.676 12.87C107.857 12.0606 105.842 11.7948 103.875 12.105C101.908 12.4153 100.073 13.2881 98.5936 14.6178C97.1141 13.285 95.2786 12.4094 93.31 12.0975C91.3414 11.7855 89.3243 12.0506 87.5037 12.8604C85.6832 13.6703 84.1374 14.9901 83.0542 16.6596C81.9709 18.3292 81.3967 20.2766 81.4014 22.2655V36.6412H88.2899V22.2655C88.2899 21.3566 88.6518 20.4849 89.2959 19.8423C89.94 19.1996 90.8136 18.8385 91.7245 18.8385C92.6354 18.8385 93.509 19.1996 94.1531 19.8423C94.7972 20.4849 95.1591 21.3566 95.1591 22.2655V27.7544C95.158 29.7495 95.7387 31.7018 96.8305 33.3733C97.9222 35.0448 99.4778 36.3632 101.308 37.1678C103.137 37.9723 105.162 38.2283 107.135 37.9045C109.108 37.5807 110.944 36.691 112.419 35.344C114.305 37.0198 116.745 37.9409 119.27 37.9302C121.796 37.9195 124.228 36.9777 126.099 35.2859C127.987 36.9839 130.437 37.9252 132.978 37.9288H145.358C149.846 37.8224 154.114 35.9689 157.25 32.7644C160.386 29.5598 162.142 25.2585 162.142 20.7795C162.142 16.3005 160.386 11.9992 157.25 8.79465C154.114 5.59014 149.846 3.73664 145.358 3.63024H145.348ZM108.907 27.7544C108.932 28.2204 108.861 28.6866 108.7 29.1245C108.538 29.5624 108.289 29.9628 107.967 30.3015C107.645 30.6401 107.257 30.9098 106.828 31.094C106.398 31.2783 105.935 31.3734 105.468 31.3734C105 31.3734 104.537 31.2783 104.107 31.094C103.678 30.9098 103.29 30.6401 102.968 30.3015C102.647 29.9628 102.397 29.5624 102.236 29.1245C102.074 28.6866 102.003 28.2204 102.028 27.7544V22.2655C102.075 21.3868 102.458 20.5596 103.098 19.9541C103.738 19.3487 104.586 19.0112 105.468 19.0112C106.349 19.0112 107.198 19.3487 107.838 19.9541C108.477 20.5596 108.86 21.3868 108.907 22.2655V27.7544ZM136.403 31.0749H132.968C132.057 31.0723 131.183 30.7091 130.539 30.0649C129.895 29.4207 129.534 28.548 129.534 27.6382V22.1493C129.534 21.2404 129.896 20.3688 130.54 19.7261C131.184 19.0834 132.058 18.7224 132.968 18.7224C133.879 18.7224 134.753 19.0834 135.397 19.7261C136.041 20.3688 136.403 21.2404 136.403 22.1493V31.0749Z" fill="#EFEFEF"/>
<path d="M122.683 54.1052C122.637 54.9838 122.254 55.8111 121.614 56.4165C120.974 57.022 120.126 57.3595 119.244 57.3595C118.362 57.3595 117.514 57.022 116.874 56.4165C116.234 55.8111 115.851 54.9838 115.804 54.1052V41.7527H108.926V54.1052C108.926 55.0141 108.564 55.8857 107.92 56.5284C107.276 57.1711 106.402 57.5321 105.491 57.5321C104.58 57.5321 103.707 57.1711 103.062 56.5284C102.418 55.8857 102.056 55.0141 102.056 54.1052V41.7527H95.1777V54.1052C95.1777 55.0141 94.8158 55.8857 94.1717 56.5284C93.5276 57.1711 92.654 57.5321 91.7431 57.5321C90.8322 57.5321 89.9586 57.1711 89.3145 56.5284C88.6704 55.8857 88.3085 55.0141 88.3085 54.1052V41.8689H81.4297V66.448C81.4297 67.3578 81.0682 68.2304 80.4243 68.8746C79.7805 69.5189 78.9069 69.8821 77.9951 69.8846H74.1143V76.7385H77.9951C80.7263 76.7308 83.343 75.6436 85.2724 73.7148C87.2018 71.7861 88.2866 69.1731 88.2891 66.448V63.7955C90.0322 64.4208 91.9129 64.5611 93.7297 64.2013C95.5465 63.8414 97.231 62.9951 98.6025 61.7529C100.486 63.4535 102.936 64.3952 105.477 64.3952C108.017 64.3952 110.467 63.4535 112.35 61.7529C113.83 63.0826 115.665 63.9554 117.632 64.2656C119.599 64.5758 121.614 64.3101 123.433 63.5006C125.251 62.6911 126.796 61.3727 127.878 59.705C128.961 58.0374 129.536 56.0922 129.533 54.1052V41.7527H122.664L122.683 54.1052Z" fill="#EFEFEF"/>
<path d="M79.9357 54.2114V48.7322C79.9358 47.3808 79.669 46.0427 79.1507 44.7942C78.6324 43.5457 77.8727 42.4113 76.915 41.4557C75.9573 40.5001 74.8204 39.7421 73.5691 39.225C72.3178 38.7078 70.9767 38.4417 69.6224 38.4417C68.268 38.4417 66.9269 38.7078 65.6756 39.225C64.4243 39.7421 63.2874 40.5001 62.3297 41.4557C61.372 42.4113 60.6123 43.5457 60.094 44.7942C59.5757 46.0427 59.3089 47.3808 59.3089 48.7322V54.105C59.2622 54.9836 58.8794 55.8109 58.2395 56.4163C57.5996 57.0218 56.7514 57.3592 55.8695 57.3592C54.9877 57.3592 54.1394 57.0218 53.4996 56.4163C52.8597 55.8109 52.4769 54.9836 52.4301 54.105V26.457H45.5998V54.105C45.5881 56.0892 46.1527 58.0343 47.2253 59.7051C48.2979 61.376 49.8326 62.7011 51.6439 63.5203C53.4552 64.3394 55.4655 64.6176 57.4318 64.3211C59.3982 64.0245 61.2363 63.1661 62.7241 61.8495C64.2024 63.188 66.0388 64.0687 68.0097 64.3845C69.9807 64.7003 72.0011 64.4375 73.825 63.6281C75.649 62.8187 77.1977 61.4976 78.2826 59.8257C79.3676 58.1538 79.9419 56.2032 79.9357 54.2114ZM66.1878 54.2114V48.7322C66.163 48.2662 66.2335 47.8 66.3952 47.3621C66.5568 46.9242 66.8061 46.5238 67.128 46.1851C67.4498 45.8465 67.8373 45.5768 68.267 45.3926C68.6967 45.2083 69.1595 45.1132 69.6272 45.1132C70.0949 45.1132 70.5577 45.2083 70.9874 45.3926C71.4171 45.5768 71.8046 45.8465 72.1264 46.1851C72.4483 46.5238 72.6976 46.9242 72.8592 47.3621C73.0209 47.8 73.0914 48.2662 73.0666 48.7322V54.2114C73.0198 55.0901 72.6371 55.9174 71.9972 56.5228C71.3573 57.1282 70.509 57.4657 69.6272 57.4657C68.7454 57.4657 67.8971 57.1282 67.2572 56.5228C66.6173 55.9174 66.2346 55.0901 66.1878 54.2114Z" fill="#EFEFEF"/>
<path d="M44.0964 54.105V38.0449H37.2176V54.105C37.1708 54.9837 36.788 55.811 36.1481 56.4164C35.5083 57.0219 34.66 57.3593 33.7782 57.3593C32.8963 57.3593 32.0481 57.0219 31.4082 56.4164C30.7683 55.811 30.3855 54.9837 30.3388 54.105V48.6161C30.3811 47.2388 30.1458 45.8671 29.6468 44.5823C29.1478 43.2974 28.3953 42.1257 27.4339 41.1365C26.4724 40.1473 25.3217 39.3609 24.0499 38.8238C22.7781 38.2867 21.4112 38.01 20.0302 38.01C18.6492 38.01 17.2823 38.2867 16.0105 38.8238C14.7387 39.3609 13.588 40.1473 12.6265 41.1365C11.6651 42.1257 10.9126 43.2974 10.4136 44.5823C9.9146 45.8671 9.6793 47.2388 9.72165 48.6161V64.444H16.5908V48.6161C16.6376 47.7375 17.0203 46.9102 17.6602 46.3048C18.3001 45.6993 19.1484 45.3618 20.0302 45.3618C20.912 45.3618 21.7603 45.6993 22.4002 46.3048C23.0401 46.9102 23.4228 47.7375 23.4696 48.6161V54.105C23.4696 56.8343 24.5562 59.4517 26.4903 61.3815C28.4245 63.3114 31.0477 64.3956 33.783 64.3956C36.5183 64.3956 39.1416 63.3114 41.0757 61.3815C43.0098 59.4517 44.0964 56.8343 44.0964 54.105Z" fill="#EFEFEF"/>
<path d="M44.1062 69.8167H26.9043V76.6802H44.1062V69.8167Z" fill="#EFEFEF"/>
<path d="M74.076 4.71436L0 31.1909L21.6649 12.788L74.076 4.71436Z" fill="#084896"/>
</svg>
