<svg width="434" height="278" viewBox="0 0 434 278" fill="none" xmlns="http://www.w3.org/2000/svg">
<g clip-path="url(#clip0_208_1719)">
<path d="M0.949463 78.6372L187.175 12.2236L425.086 25.8949L433.355 68.9727L312.765 192.888L25.3893 178.197L0.949463 78.6372Z" fill="#F6F6F6"/>
<path d="M433.356 68.9712L415.355 162.217L312.766 192.887C354.036 151.776 391.525 110.616 433.356 68.9712Z" fill="#EFEFEF"/>
<g filter="url(#filter0_d_208_1719)">
<path d="M366.352 9.50353H352.522C350.23 9.50354 348.031 8.59865 346.408 6.98726C344.785 5.37587 343.87 3.18947 343.864 0.907401V0.397461H326.595V0.907401C326.601 7.75137 329.335 14.3132 334.196 19.1526C339.057 23.992 345.648 26.7136 352.522 26.7201H366.352C373.229 26.7201 379.823 29.4396 384.686 34.2804C389.548 39.1212 392.28 45.6868 392.28 52.5327C392.28 59.3787 389.548 65.9443 384.686 70.7851C379.823 75.6259 373.229 78.3454 366.352 78.3454H361.157V55.9566C361.157 49.1107 358.425 42.5451 353.563 37.7043C348.7 32.8635 342.106 30.144 335.229 30.144C328.353 30.144 321.758 32.8635 316.895 37.7043C312.033 42.5451 309.301 49.1107 309.301 55.9566V69.725C309.364 70.8939 309.186 72.0632 308.78 73.1617C308.374 74.2601 307.747 75.2646 306.938 76.114C306.129 76.9634 305.154 77.6398 304.074 78.1021C302.994 78.5644 301.83 78.8028 300.655 78.8028C299.479 78.8028 298.315 78.5644 297.235 78.1021C296.155 77.6398 295.181 76.9634 294.372 76.114C293.563 75.2646 292.936 74.2601 292.529 73.1617C292.123 72.0632 291.946 70.8939 292.008 69.725V56.248C292.015 51.2638 290.571 46.3844 287.848 42.2014C285.126 38.0183 281.244 34.7111 276.672 32.6806C272.1 30.6501 267.034 29.9835 262.089 30.7617C257.144 31.5398 252.532 33.7292 248.811 37.0646C245.092 33.7214 240.477 31.5252 235.528 30.7427C230.579 29.9602 225.508 30.625 220.932 32.6565C216.355 34.6879 212.469 37.9985 209.745 42.1864C207.022 46.3742 205.579 51.2592 205.59 56.248V92.3081H222.908V56.248C222.908 53.9682 223.818 51.7817 225.437 50.1696C227.056 48.5576 229.253 47.6519 231.543 47.6519C233.833 47.6519 236.029 48.5576 237.648 50.1696C239.267 51.7817 240.177 53.9682 240.177 56.248V70.0164C240.174 75.0209 241.634 79.9181 244.379 84.1108C247.124 88.3035 251.034 91.6106 255.634 93.6288C260.234 95.647 265.325 96.2891 270.285 95.4768C275.245 94.6645 279.861 92.4329 283.569 89.0542C288.31 93.2577 294.444 95.5681 300.793 95.5412C307.141 95.5143 313.255 93.152 317.96 88.9085C322.705 93.1676 328.865 95.5288 335.253 95.5377H366.377C377.658 95.2708 388.388 90.6215 396.273 82.5833C404.157 74.5451 408.571 63.7557 408.571 52.5206C408.571 41.2856 404.157 30.4961 396.273 22.4579C388.388 14.4197 377.658 9.77041 366.377 9.50353H366.352ZM274.739 70.0164C274.802 71.1853 274.624 72.3546 274.218 73.4531C273.811 74.5515 273.185 75.556 272.376 76.4054C271.567 77.2548 270.592 77.9312 269.512 78.3935C268.432 78.8558 267.268 79.0942 266.093 79.0942C264.917 79.0942 263.753 78.8558 262.673 78.3935C261.593 77.9312 260.619 77.2548 259.809 76.4054C259 75.556 258.374 74.5515 257.967 73.4531C257.561 72.3546 257.384 71.1853 257.446 70.0164V56.248C257.564 54.044 258.526 51.9689 260.134 50.4502C261.743 48.9315 263.876 48.085 266.093 48.085C268.309 48.085 270.442 48.9315 272.051 50.4502C273.659 51.9689 274.622 54.044 274.739 56.248V70.0164ZM343.864 78.3454H335.229C332.937 78.339 330.741 77.4279 329.122 75.812C327.504 74.196 326.595 72.0071 326.595 69.725V55.9566C326.595 53.6768 327.504 51.4903 329.124 49.8782C330.743 48.2662 332.939 47.3605 335.229 47.3605C337.519 47.3605 339.715 48.2662 341.335 49.8782C342.954 51.4903 343.864 53.6768 343.864 55.9566V78.3454Z" fill="#0957CB"/>
</g>
<g filter="url(#filter1_d_208_1719)">
<path d="M309.375 136.114C309.257 138.318 308.295 140.393 306.686 141.912C305.077 143.43 302.945 144.277 300.728 144.277C298.511 144.277 296.378 143.43 294.77 141.912C293.161 140.393 292.199 138.318 292.081 136.114V105.129H274.788V136.114C274.788 138.394 273.878 140.58 272.259 142.192C270.64 143.804 268.444 144.71 266.154 144.71C263.864 144.71 261.667 143.804 260.048 142.192C258.429 140.58 257.519 138.394 257.519 136.114V105.129H240.226V136.114C240.226 138.394 239.316 140.58 237.697 142.192C236.078 143.804 233.881 144.71 231.591 144.71C229.301 144.71 227.105 143.804 225.486 142.192C223.867 140.58 222.957 138.394 222.957 136.114V105.42H205.664V167.074C205.664 169.357 204.755 171.545 203.136 173.161C201.518 174.777 199.321 175.688 197.029 175.695H187.273V192.887H197.029C203.895 192.868 210.474 190.141 215.324 185.303C220.175 180.465 222.902 173.91 222.908 167.074V160.421C227.29 161.99 232.018 162.341 236.586 161.439C241.153 160.536 245.388 158.413 248.836 155.297C253.572 159.563 259.73 161.925 266.117 161.925C272.503 161.925 278.662 159.563 283.398 155.297C287.118 158.633 291.731 160.822 296.676 161.6C301.621 162.378 306.686 161.712 311.258 159.681C315.831 157.651 319.713 154.344 322.435 150.16C325.157 145.977 326.602 141.098 326.595 136.114V105.129H309.326L309.375 136.114Z" fill="#0957CB"/>
</g>
<g filter="url(#filter2_d_208_1719)">
<path d="M201.909 136.382V122.638C201.909 119.248 201.238 115.892 199.935 112.76C198.632 109.628 196.722 106.783 194.315 104.386C191.907 101.989 189.049 100.087 185.903 98.7902C182.758 97.493 179.386 96.8254 175.981 96.8254C172.576 96.8254 169.205 97.493 166.059 98.7902C162.913 100.087 160.055 101.989 157.648 104.386C155.24 106.783 153.33 109.628 152.027 112.76C150.724 115.892 150.053 119.248 150.053 122.638V136.115C149.936 138.319 148.974 140.394 147.365 141.913C145.756 143.431 143.624 144.278 141.407 144.278C139.19 144.278 137.057 143.431 135.449 141.913C133.84 140.394 132.878 138.319 132.76 136.115V66.7632H115.589V136.115C115.559 141.092 116.979 145.971 119.675 150.162C122.372 154.354 126.23 157.678 130.784 159.732C135.337 161.787 140.391 162.485 145.334 161.741C150.278 160.997 154.899 158.844 158.639 155.541C162.355 158.899 166.972 161.108 171.927 161.9C176.882 162.692 181.961 162.033 186.547 160.003C191.132 157.972 195.026 154.659 197.753 150.465C200.481 146.271 201.924 141.378 201.909 136.382ZM167.347 136.382V122.638C167.284 121.469 167.462 120.3 167.868 119.201C168.274 118.103 168.901 117.098 169.71 116.249C170.519 115.4 171.494 114.723 172.574 114.261C173.654 113.799 174.818 113.56 175.993 113.56C177.169 113.56 178.333 113.799 179.413 114.261C180.493 114.723 181.467 115.4 182.276 116.249C183.085 117.098 183.712 118.103 184.119 119.201C184.525 120.3 184.702 121.469 184.64 122.638V136.382C184.522 138.586 183.56 140.661 181.951 142.18C180.343 143.699 178.21 144.545 175.993 144.545C173.776 144.545 171.644 143.699 170.035 142.18C168.427 140.661 167.464 138.586 167.347 136.382Z" fill="#0957CB"/>
</g>
<g filter="url(#filter3_d_208_1719)">
<path d="M111.807 136.114V95.8291H94.5133V136.114C94.3957 138.318 93.4334 140.393 91.8247 141.912C90.2161 143.431 88.0836 144.277 85.8666 144.277C83.6497 144.277 81.5172 143.431 79.9085 141.912C78.2999 140.393 77.3376 138.318 77.22 136.114V122.346C77.3265 118.891 76.7349 115.45 75.4804 112.227C74.226 109.005 72.3341 106.065 69.9171 103.584C67.5001 101.103 64.6072 99.1302 61.41 97.783C58.2127 96.4359 54.7763 95.7417 51.3044 95.7417C47.8326 95.7417 44.3962 96.4359 41.1989 97.783C38.0017 99.1302 35.1088 101.103 32.6918 103.584C30.2748 106.065 28.3829 109.005 27.1284 112.227C25.874 115.45 25.2824 118.891 25.3889 122.346V162.048H42.6578V122.346C42.7754 120.142 43.7377 118.067 45.3464 116.548C46.955 115.03 49.0875 114.183 51.3044 114.183C53.5214 114.183 55.6539 115.03 57.2625 116.548C58.8712 118.067 59.8335 120.142 59.9511 122.346V136.114C59.9511 142.96 62.6828 149.526 67.5452 154.367C72.4075 159.207 79.0024 161.927 85.8788 161.927C92.7553 161.927 99.3501 159.207 104.213 154.367C109.075 149.526 111.807 142.96 111.807 136.114Z" fill="#0957CB"/>
</g>
<g filter="url(#filter4_d_208_1719)">
<path d="M111.83 175.525H68.5847V192.742H111.83V175.525Z" fill="#0957CB"/>
</g>
<path d="M187.176 12.2236L0.949463 78.6372L55.4148 32.4755L187.176 12.2236Z" fill="#EFEFEF"/>
</g>
<path d="M73.3299 226.824C73.6936 226.571 73.8755 226.445 74.0725 226.351C74.2473 226.269 74.4308 226.205 74.6196 226.163C74.8321 226.114 75.0532 226.102 75.4953 226.076L385.321 208.141C386.209 208.09 386.653 208.064 387.058 208.17C387.416 208.264 387.751 208.433 388.04 208.665C388.366 208.927 388.61 209.299 389.097 210.043L428.718 270.53C430.111 272.656 430.807 273.719 430.75 274.6C430.699 275.367 430.317 276.074 429.703 276.537C428.998 277.067 427.727 277.067 425.185 277.067H14.4823C10.4085 277.067 8.37165 277.067 7.60736 276.34C6.94683 275.712 6.65721 274.787 6.84129 273.895C7.05429 272.862 8.72716 271.7 12.0729 269.375L73.3299 226.824Z" fill="white"/>
<path d="M104.742 244.911L102.6 247.471L100.07 245.328L102.183 242.798L104.742 244.911ZM94.2666 260C94.2666 259.385 94.3956 258.264 94.6535 256.637C94.9114 255.01 95.2586 252.967 95.6951 250.506L97.7784 250.983C97.1633 254.375 96.7764 257.093 96.6177 259.137C96.5185 260.308 97.0145 261.091 98.1057 261.488C99.2168 261.905 100.447 262.113 101.796 262.113C103.106 262.113 104.355 262.004 105.546 261.786C106.736 261.567 107.728 261.21 108.522 260.714L107.391 249.346L110.07 248.75C110.446 253.175 110.704 257.014 110.843 260.268C110.903 261.994 110.04 263.294 108.254 264.166C106.488 265.039 104.256 265.476 101.558 265.476C98.7605 265.476 96.8458 264.911 95.8141 263.78C94.7824 262.649 94.2666 261.389 94.2666 260ZM130.09 255.447C130.169 255.447 130.239 255.566 130.298 255.804C130.358 256.042 130.387 256.349 130.387 256.726L130.387 257.53C130.387 257.887 130.358 258.195 130.298 258.452C130.239 258.691 130.169 258.81 130.09 258.81L129.376 258.81C127.332 258.81 125.963 258.066 125.269 256.578C125.15 256.915 125.031 257.183 124.912 257.381C124.812 257.56 124.683 257.689 124.525 257.768C123.83 258.185 122.898 258.532 121.727 258.81C120.557 259.067 119.455 259.196 118.424 259.196C117.134 259.196 116.152 258.909 115.477 258.333C114.803 257.758 114.466 256.726 114.466 255.238C114.466 254.584 114.475 254.078 114.495 253.72L116.608 253.78L116.608 254.494C116.608 254.951 116.668 255.268 116.787 255.447C116.926 255.625 117.144 255.734 117.442 255.774C117.739 255.814 118.285 255.834 119.078 255.834C120.011 255.834 120.973 255.724 121.965 255.506C122.957 255.268 123.741 254.951 124.316 254.554L122.054 245.387L124.554 243.87L126.37 252.411C126.588 253.482 126.786 254.207 126.965 254.584C127.163 254.961 127.461 255.199 127.858 255.298C128.274 255.397 129.018 255.447 130.09 255.447ZM142.004 241.37L139.772 239.495L141.677 237.203L143.938 239.138L142.004 241.37ZM142.063 243.661L143.968 241.4L146.23 243.304L144.325 245.566L142.063 243.661ZM139.891 245.626L137.629 243.721L139.534 241.429L141.825 243.334L139.891 245.626ZM150.188 247.233C150.327 249.971 150.396 252.52 150.396 254.881C150.396 256.23 149.91 257.222 148.938 257.857C147.986 258.492 146.805 258.81 145.397 258.81C143.75 258.81 142.669 258.224 142.153 257.054C141.796 257.629 141.25 258.066 140.516 258.363C139.782 258.661 139.058 258.81 138.343 258.81C136.736 258.81 135.685 258.214 135.189 257.024C134.375 258.214 132.679 258.81 130.1 258.81C130.02 258.81 129.951 258.691 129.891 258.452C129.812 258.195 129.772 257.887 129.772 257.53L129.772 256.726C129.772 256.369 129.802 256.072 129.862 255.834C129.921 255.576 130 255.447 130.1 255.447C131.766 255.447 133.066 255.209 133.998 254.732L134.058 250.149L136.498 250.209L136.409 253.78C136.389 254.494 136.568 254.951 136.945 255.149C137.322 255.347 137.927 255.447 138.76 255.447C139.812 255.447 140.565 255.238 141.022 254.822L140.903 248.989L143.373 248.929L143.492 254.97C143.869 255.288 144.434 255.447 145.188 255.447C146.379 255.447 147.371 255.238 148.164 254.822L147.51 247.709L150.188 247.233ZM155.838 264.553C158.159 263.502 159.925 262.48 161.135 261.488C162.365 260.516 163.208 259.504 163.665 258.452L162.682 249.733L165.331 249.078C165.411 249.891 165.46 250.417 165.48 250.655C165.639 252.203 165.768 253.572 165.867 254.762C165.986 255.953 166.045 256.875 166.045 257.53C166.045 259.435 165.351 261.171 163.962 262.738C162.593 264.305 160.431 265.793 157.474 267.202L155.838 264.553ZM172.64 237.174L172.878 258.81L170.557 259.137L169.962 237.828L172.64 237.174ZM184.7 244.108C186.763 246.112 188.242 248.016 189.134 249.822C190.027 251.627 190.474 253.304 190.474 254.851C190.474 255.407 190.404 255.903 190.265 256.339C190.126 256.756 189.888 257.133 189.551 257.47C188.976 258.026 188.132 258.452 187.021 258.75C185.91 259.048 184.571 259.196 183.004 259.196C181.575 259.196 180.484 259.067 179.73 258.81C178.996 258.532 178.48 258.075 178.182 257.441C177.885 256.806 177.736 255.893 177.736 254.703C177.736 254.207 177.746 253.82 177.766 253.542L179.909 253.661L179.909 254.107C179.909 254.663 179.988 255.06 180.147 255.298C180.305 255.536 180.593 255.685 181.01 255.744C181.426 255.804 182.141 255.834 183.152 255.834C183.926 255.834 184.809 255.794 185.801 255.714C186.793 255.615 187.577 255.447 188.152 255.209C188.152 253.74 187.696 252.302 186.783 250.893C185.89 249.465 184.601 247.987 182.914 246.459L184.7 244.108ZM208.795 255.447C208.874 255.447 208.943 255.566 209.003 255.804C209.062 256.042 209.092 256.349 209.092 256.726L209.092 257.53C209.092 257.887 209.062 258.195 209.003 258.452C208.943 258.691 208.874 258.81 208.795 258.81L207.693 258.81C206.701 258.81 205.848 258.571 205.134 258.095C204.42 257.619 203.993 256.895 203.854 255.923L203.586 256.488C203.309 257.163 202.862 257.54 202.247 257.619C201.255 257.738 200.442 257.798 199.807 257.798C198.398 257.798 197.386 257.57 196.771 257.113C196.156 256.637 195.849 255.804 195.849 254.613C195.849 252.828 196.365 251.32 197.396 250.09C198.448 248.86 200.015 247.947 202.098 247.352L201.831 245.09L204.36 244.376L205.134 252.292C205.233 253.304 205.342 254.008 205.461 254.405C205.6 254.782 205.858 255.05 206.235 255.209C206.632 255.367 207.307 255.447 208.259 255.447L208.795 255.447ZM199.718 254.643C200.888 254.643 201.989 254.484 203.021 254.167L202.545 249.971C200.997 250.288 199.856 250.883 199.122 251.756C198.388 252.609 198.001 253.502 197.962 254.435C198.438 254.574 199.023 254.643 199.718 254.643ZM214.457 244.227L211.928 242.084L214.041 239.554L216.6 241.667L214.457 244.227ZM216.273 247.262L216.332 248.155C216.451 250.735 216.511 252.828 216.511 254.435C216.511 255.764 215.906 256.796 214.695 257.53C213.941 257.966 213.019 258.294 211.928 258.512C210.856 258.71 209.815 258.81 208.803 258.81C208.723 258.81 208.654 258.691 208.594 258.452C208.515 258.195 208.475 257.887 208.475 257.53L208.475 256.726C208.475 256.369 208.505 256.072 208.565 255.834C208.624 255.576 208.704 255.447 208.803 255.447C210.033 255.447 211.084 255.377 211.957 255.238C212.85 255.099 213.614 254.861 214.249 254.524L213.564 247.709L216.273 247.262ZM228.116 255.447C228.195 255.447 228.264 255.566 228.324 255.804C228.383 256.042 228.413 256.349 228.413 256.726L228.413 257.53C228.413 257.887 228.383 258.195 228.324 258.452C228.264 258.691 228.195 258.81 228.116 258.81L227.401 258.81C225.437 258.81 224.009 258.363 223.116 257.47C222.223 256.578 221.747 255.04 221.687 252.857L221.241 237.828L223.949 237.174L224.187 252.887C224.207 253.681 224.445 254.306 224.901 254.762C225.358 255.218 225.993 255.447 226.806 255.447L228.116 255.447ZM237.326 243.661L234.826 241.519L236.909 238.989L239.469 241.102L237.326 243.661ZM239.111 247.739C240.798 248.373 242.246 248.869 243.457 249.227C244.687 249.564 245.837 249.733 246.909 249.733L246.254 252.738C245.282 252.798 244.379 253.006 243.546 253.363C242.712 253.72 241.641 254.266 240.332 255L239.32 255.566C237.514 256.597 235.838 257.401 234.29 257.976C232.762 258.532 230.987 258.81 228.963 258.81L228.13 258.81C228.05 258.81 227.981 258.691 227.921 258.452C227.842 258.195 227.802 257.887 227.802 257.53L227.802 256.726C227.802 256.369 227.832 256.072 227.892 255.834C227.951 255.576 228.031 255.447 228.13 255.447L228.963 255.447C230.233 255.447 231.522 255.268 232.832 254.911C234.141 254.554 235.51 254.088 236.939 253.512C237.971 253.056 238.734 252.709 239.23 252.471C239.726 252.252 240.371 251.975 241.165 251.637C241.363 251.558 241.562 251.498 241.76 251.459C241.72 251.439 241.661 251.429 241.582 251.429C240.728 251.31 239.488 250.913 237.861 250.238C236.135 249.544 234.895 249.197 234.141 249.197C233.626 249.197 233.259 249.385 233.04 249.762C232.822 250.119 232.643 250.596 232.505 251.191L230.451 250.834C230.709 249.366 231.116 248.254 231.671 247.501C232.227 246.727 233.05 246.34 234.141 246.34C234.657 246.34 235.282 246.459 236.016 246.697C236.77 246.915 237.802 247.262 239.111 247.739ZM263.614 265.595C260.797 265.595 258.872 265.03 257.841 263.899C256.829 262.788 256.323 261.528 256.323 260.119C256.323 259.504 256.452 258.383 256.71 256.756C256.968 255.129 257.315 253.086 257.751 250.625L259.835 251.072C259.22 254.524 258.833 257.252 258.674 259.256C258.575 260.446 259.081 261.24 260.192 261.637C261.303 262.034 262.563 262.232 263.971 262.232C265.578 262.232 266.977 262.103 268.168 261.845C269.378 261.587 270.4 261.121 271.233 260.446C271.293 259.911 271.322 259.464 271.322 259.107C271.322 258.571 271.233 258.204 271.054 258.006C270.896 257.808 270.608 257.659 270.191 257.56L268.495 257.322C267.483 257.183 266.749 257.054 266.293 256.935C265.836 256.816 265.489 256.617 265.251 256.339C265.013 256.062 264.894 255.645 264.894 255.089C264.894 253.542 265.172 252.004 265.727 250.477C266.303 248.929 267.067 247.669 268.019 246.697C268.971 245.705 269.983 245.209 271.054 245.209C271.828 245.209 272.513 245.457 273.108 245.953C273.723 246.429 274.328 247.133 274.923 248.066L273.465 249.524C272.652 248.711 271.868 248.304 271.114 248.304C270.162 248.304 269.328 248.86 268.614 249.971C267.9 251.082 267.453 252.431 267.275 254.018L268.257 254.167C269.685 254.365 270.757 254.574 271.471 254.792C272.185 255.01 272.751 255.417 273.167 256.012C273.584 256.607 273.792 257.5 273.792 258.691C273.792 260.337 273.415 261.617 272.662 262.53C271.868 263.542 270.687 264.305 269.12 264.821C267.572 265.337 265.737 265.595 263.614 265.595ZM285.719 255.447C285.798 255.447 285.868 255.566 285.927 255.804C285.987 256.042 286.016 256.349 286.016 256.726L286.016 257.53C286.016 257.887 285.987 258.195 285.927 258.452C285.868 258.691 285.798 258.81 285.719 258.81L285.005 258.81C283.04 258.81 281.612 258.363 280.719 257.47C279.826 256.578 279.35 255.04 279.29 252.857L278.844 237.828L281.552 237.174L281.79 252.887C281.81 253.681 282.048 254.306 282.505 254.762C282.961 255.218 283.596 255.447 284.409 255.447L285.719 255.447ZM290.733 245.328L288.203 243.185L290.316 240.656L292.876 242.798L290.733 245.328ZM296.715 255.447C296.794 255.447 296.863 255.566 296.923 255.804C296.983 256.042 297.012 256.349 297.012 256.726L297.012 257.53C297.012 257.887 296.983 258.195 296.923 258.452C296.863 258.691 296.794 258.81 296.715 258.81C295.008 258.81 293.749 258.651 292.935 258.333C292.141 258.016 291.636 257.49 291.417 256.756C291.02 257.49 290.356 258.016 289.423 258.333C288.491 258.651 287.261 258.81 285.733 258.81C285.654 258.81 285.584 258.691 285.525 258.452C285.445 258.195 285.406 257.887 285.406 257.53L285.406 256.726C285.406 256.369 285.435 256.072 285.495 255.834C285.554 255.576 285.634 255.447 285.733 255.447C287.717 255.447 289.195 255.189 290.167 254.673L289.602 248.75L292.28 248.512L292.637 254.851C292.995 255.07 293.471 255.228 294.066 255.328C294.661 255.407 295.544 255.447 296.715 255.447ZM304.248 248.155C304.367 250.735 304.427 252.828 304.427 254.435C304.427 255.764 303.822 256.796 302.611 257.53C301.858 257.966 300.935 258.294 299.844 258.512C298.772 258.71 297.731 258.81 296.719 258.81C296.639 258.81 296.57 258.691 296.511 258.452C296.431 258.195 296.391 257.887 296.391 257.53L296.391 256.726C296.391 256.369 296.421 256.072 296.481 255.834C296.54 255.576 296.62 255.447 296.719 255.447C297.949 255.447 299.001 255.377 299.873 255.238C300.766 255.099 301.53 254.861 302.165 254.524L301.481 247.709L304.189 247.262L304.248 248.155ZM299.516 262.351L302.076 264.494L299.933 267.024L297.433 264.911L299.516 262.351ZM327.066 237.114C325.241 237.927 323.257 238.89 321.114 240.001L321.233 237.679C323.237 236.628 325.131 235.735 326.917 235.001L327.066 237.114ZM335.042 255.447C335.121 255.447 335.191 255.566 335.25 255.804C335.31 256.042 335.339 256.349 335.339 256.726L335.339 257.53C335.339 257.887 335.31 258.195 335.25 258.452C335.191 258.691 335.121 258.81 335.042 258.81L332.512 258.81C331.917 258.81 331.371 258.681 330.875 258.423C330.399 258.145 330.022 257.758 329.744 257.262C328.931 257.837 327.691 258.264 326.024 258.542C324.358 258.8 322.165 258.929 319.447 258.929C317.245 258.929 315.429 258.77 314.001 258.452C312.592 258.135 311.501 257.57 310.727 256.756C309.973 255.943 309.596 254.822 309.596 253.393C309.596 252.957 309.646 252.391 309.745 251.697L310.519 247.084L312.602 247.53L311.918 251.607C311.858 251.965 311.828 252.282 311.828 252.56C311.828 253.453 312.106 254.117 312.662 254.554C313.217 254.99 313.971 255.268 314.924 255.387C315.896 255.506 317.235 255.566 318.941 255.566C321.183 255.566 323.167 255.486 324.893 255.328C326.62 255.149 327.889 254.891 328.703 254.554C328.584 252.55 327.879 250.725 326.59 249.078C325.3 247.431 323.435 245.764 320.995 244.078L321.084 241.281C324.259 239.535 327.602 238.047 331.113 236.816L331.441 239.644C328.703 240.695 326.193 241.767 323.911 242.858C324.11 242.977 324.387 243.175 324.745 243.453C326.887 245.219 328.415 246.955 329.328 248.661C330.26 250.367 330.776 252.193 330.875 254.137C330.994 254.693 331.203 255.05 331.5 255.209C331.798 255.367 332.274 255.447 332.929 255.447L335.042 255.447ZM340.111 245.328L337.581 243.185L339.694 240.656L342.254 242.798L340.111 245.328ZM346.093 255.447C346.172 255.447 346.242 255.566 346.301 255.804C346.361 256.042 346.391 256.349 346.391 256.726L346.391 257.53C346.391 257.887 346.361 258.195 346.301 258.452C346.242 258.691 346.172 258.81 346.093 258.81C344.387 258.81 343.127 258.651 342.313 258.333C341.52 258.016 341.014 257.49 340.796 256.756C340.399 257.49 339.734 258.016 338.802 258.333C337.869 258.651 336.639 258.81 335.111 258.81C335.032 258.81 334.963 258.691 334.903 258.452C334.824 258.195 334.784 257.887 334.784 257.53L334.784 256.726C334.784 256.369 334.814 256.072 334.873 255.834C334.933 255.576 335.012 255.447 335.111 255.447C337.095 255.447 338.573 255.189 339.546 254.673L338.98 248.75L341.659 248.512L342.016 254.851C342.373 255.07 342.849 255.228 343.444 255.328C344.04 255.407 344.922 255.447 346.093 255.447ZM366.186 247.233C366.325 249.971 366.394 252.52 366.394 254.881C366.394 256.23 365.908 257.222 364.936 257.857C363.983 258.492 362.803 258.81 361.394 258.81C359.747 258.81 358.666 258.224 358.15 257.054C357.793 257.629 357.248 258.066 356.513 258.363C355.779 258.661 355.055 258.81 354.341 258.81C352.734 258.81 351.682 258.214 351.186 257.024C350.373 258.214 348.676 258.81 346.097 258.81C346.018 258.81 345.948 258.691 345.889 258.452C345.81 258.195 345.77 257.887 345.77 257.53L345.77 256.726C345.77 256.369 345.8 256.072 345.859 255.834C345.919 255.576 345.998 255.447 346.097 255.447C347.764 255.447 349.063 255.209 349.996 254.732L350.055 250.149L352.496 250.209L352.406 253.78C352.387 254.494 352.565 254.951 352.942 255.149C353.319 255.347 353.924 255.447 354.758 255.447C355.809 255.447 356.563 255.238 357.019 254.822L356.9 248.989L359.37 248.929L359.49 254.97C359.866 255.288 360.432 255.447 361.186 255.447C362.376 255.447 363.368 255.238 364.162 254.822L363.507 247.709L366.186 247.233Z" fill="#0957CB"/>
<defs>
<filter id="filter0_d_208_1719" x="192.938" y="-2.76559" width="215.633" height="108.074" filterUnits="userSpaceOnUse" color-interpolation-filters="sRGB">
<feFlood flood-opacity="0" result="BackgroundImageFix"/>
<feColorMatrix in="SourceAlpha" type="matrix" values="0 0 0 0 0 0 0 0 0 0 0 0 0 0 0 0 0 0 127 0" result="hardAlpha"/>
<feOffset dx="-6.32611" dy="3.16305"/>
<feGaussianBlur stdDeviation="3.16305"/>
<feComposite in2="hardAlpha" operator="out"/>
<feColorMatrix type="matrix" values="0 0 0 0 0 0 0 0 0 0 0 0 0 0 0 0 0 0 0.25 0"/>
<feBlend mode="normal" in2="BackgroundImageFix" result="effect1_dropShadow_208_1719"/>
<feBlend mode="normal" in="SourceGraphic" in2="effect1_dropShadow_208_1719" result="shape"/>
</filter>
<filter id="filter1_d_208_1719" x="174.62" y="101.966" width="151.974" height="100.411" filterUnits="userSpaceOnUse" color-interpolation-filters="sRGB">
<feFlood flood-opacity="0" result="BackgroundImageFix"/>
<feColorMatrix in="SourceAlpha" type="matrix" values="0 0 0 0 0 0 0 0 0 0 0 0 0 0 0 0 0 0 127 0" result="hardAlpha"/>
<feOffset dx="-6.32611" dy="3.16305"/>
<feGaussianBlur stdDeviation="3.16305"/>
<feComposite in2="hardAlpha" operator="out"/>
<feColorMatrix type="matrix" values="0 0 0 0 0 0 0 0 0 0 0 0 0 0 0 0 0 0 0.25 0"/>
<feBlend mode="normal" in2="BackgroundImageFix" result="effect1_dropShadow_208_1719"/>
<feBlend mode="normal" in="SourceGraphic" in2="effect1_dropShadow_208_1719" result="shape"/>
</filter>
<filter id="filter2_d_208_1719" x="102.936" y="63.6001" width="98.9728" height="108.115" filterUnits="userSpaceOnUse" color-interpolation-filters="sRGB">
<feFlood flood-opacity="0" result="BackgroundImageFix"/>
<feColorMatrix in="SourceAlpha" type="matrix" values="0 0 0 0 0 0 0 0 0 0 0 0 0 0 0 0 0 0 127 0" result="hardAlpha"/>
<feOffset dx="-6.32611" dy="3.16305"/>
<feGaussianBlur stdDeviation="3.16305"/>
<feComposite in2="hardAlpha" operator="out"/>
<feColorMatrix type="matrix" values="0 0 0 0 0 0 0 0 0 0 0 0 0 0 0 0 0 0 0.25 0"/>
<feBlend mode="normal" in2="BackgroundImageFix" result="effect1_dropShadow_208_1719"/>
<feBlend mode="normal" in="SourceGraphic" in2="effect1_dropShadow_208_1719" result="shape"/>
</filter>
<filter id="filter3_d_208_1719" x="12.7245" y="92.5786" width="99.0821" height="78.9589" filterUnits="userSpaceOnUse" color-interpolation-filters="sRGB">
<feFlood flood-opacity="0" result="BackgroundImageFix"/>
<feColorMatrix in="SourceAlpha" type="matrix" values="0 0 0 0 0 0 0 0 0 0 0 0 0 0 0 0 0 0 127 0" result="hardAlpha"/>
<feOffset dx="-6.32611" dy="3.16305"/>
<feGaussianBlur stdDeviation="3.16305"/>
<feComposite in2="hardAlpha" operator="out"/>
<feColorMatrix type="matrix" values="0 0 0 0 0 0 0 0 0 0 0 0 0 0 0 0 0 0 0.25 0"/>
<feBlend mode="normal" in2="BackgroundImageFix" result="effect1_dropShadow_208_1719"/>
<feBlend mode="normal" in="SourceGraphic" in2="effect1_dropShadow_208_1719" result="shape"/>
</filter>
<filter id="filter4_d_208_1719" x="55.9325" y="172.362" width="55.8976" height="29.8685" filterUnits="userSpaceOnUse" color-interpolation-filters="sRGB">
<feFlood flood-opacity="0" result="BackgroundImageFix"/>
<feColorMatrix in="SourceAlpha" type="matrix" values="0 0 0 0 0 0 0 0 0 0 0 0 0 0 0 0 0 0 127 0" result="hardAlpha"/>
<feOffset dx="-6.32611" dy="3.16305"/>
<feGaussianBlur stdDeviation="3.16305"/>
<feComposite in2="hardAlpha" operator="out"/>
<feColorMatrix type="matrix" values="0 0 0 0 0 0 0 0 0 0 0 0 0 0 0 0 0 0 0.25 0"/>
<feBlend mode="normal" in2="BackgroundImageFix" result="effect1_dropShadow_208_1719"/>
<feBlend mode="normal" in="SourceGraphic" in2="effect1_dropShadow_208_1719" result="shape"/>
</filter>
<clipPath id="clip0_208_1719">
<rect width="432.405" height="192.49" fill="white" transform="translate(0.949707 0.397461)"/>
</clipPath>
</defs>
</svg>
