<svg width="22" height="21" viewBox="0 0 22 21" fill="none" xmlns="http://www.w3.org/2000/svg">
<path d="M16 17.0001H12L7.54999 19.96C6.88999 20.4 6 19.9301 6 19.1301V17.0001C3 17.0001 1 15.0001 1 12.0001V6C1 3 3 1 6 1H16C19 1 21 3 21 6V12.0001C21 15.0001 19 17.0001 16 17.0001Z" stroke="#20B9FD" stroke-width="1.5" stroke-miterlimit="10" stroke-linecap="round" stroke-linejoin="round"/>
<path d="M11.0001 9.93018V9.72021C11.0001 9.04021 11.4201 8.6802 11.8401 8.3902C12.2501 8.1102 12.66 7.75021 12.66 7.09021C12.66 6.17021 11.9201 5.43018 11.0001 5.43018C10.0801 5.43018 9.34009 6.17021 9.34009 7.09021" stroke="#20B9FD" stroke-width="1.5" stroke-linecap="round" stroke-linejoin="round"/>
<path d="M10.9955 12.3198H11.0045" stroke="#20B9FD" stroke-width="1.5" stroke-linecap="round" stroke-linejoin="round"/>
</svg>
