<svg width="174" height="174" viewBox="0 0 174 174" fill="none" xmlns="http://www.w3.org/2000/svg">
<circle cx="87" cy="87" r="85" stroke="#484848" stroke-width="4"/>
<path d="M75.8701 76.0056L83.0812 83.2466L97.5332 68.7646" stroke="#53C658" stroke-width="4" stroke-linecap="round" stroke-linejoin="round"/>
<path d="M122.831 62.1871V112.729C122.831 132.946 118.354 138 100.445 138H73.5821C55.6734 138 51.1963 132.946 51.1963 112.729V62.1871C51.1963 41.9702 55.6734 36.916 73.5821 36.916H100.445C118.354 36.916 122.831 41.9702 122.831 62.1871Z" stroke="#292D32" stroke-width="4" stroke-linecap="round" stroke-linejoin="round"/>
<path d="M86.8071 119.413C90.6492 119.413 93.7638 116.298 93.7638 112.456C93.7638 108.614 90.6492 105.5 86.8071 105.5C82.965 105.5 79.8503 108.614 79.8503 112.456C79.8503 116.298 82.965 119.413 86.8071 119.413Z" stroke="#292D32" stroke-width="4" stroke-linecap="round" stroke-linejoin="round"/>
<path d="M113.409 60.8308V83.4856C113.409 92.5475 110.117 94.813 96.952 94.813H77.2038C64.0384 94.813 60.7471 92.5475 60.7471 83.4856V60.8308C60.7471 51.7689 64.0384 49.5034 77.2038 49.5034H96.952C110.117 49.5034 113.409 51.7689 113.409 60.8308Z" stroke="#292D32" stroke-width="4" stroke-linecap="round" stroke-linejoin="round"/>
</svg>
