<svg width="582" height="564" viewBox="0 0 582 564" fill="none" xmlns="http://www.w3.org/2000/svg">
<path d="M54.0573 310C52.8199 310 52.2013 309.349 52.2013 308.048C52.2013 306.725 52.8199 306.064 54.0573 306.064C55.2733 306.064 55.8813 306.725 55.8813 308.048C55.8813 309.349 55.2733 310 54.0573 310ZM65.7805 307.184C66.6338 307.184 67.2312 307.003 67.5725 306.64C67.9138 306.277 68.0845 305.925 68.0845 305.584C68.0845 305.392 68.0418 305.136 67.9565 304.816C67.8925 304.496 67.7538 304.005 67.5405 303.344C67.3272 302.683 67.0178 301.797 66.6125 300.688C66.2072 299.557 65.6845 298.096 65.0445 296.304L67.5405 295.28L70.9005 304.784C71.1992 305.659 71.5512 306.277 71.9565 306.64C72.3618 307.003 72.9592 307.184 73.7485 307.184H74.1645C74.6338 307.184 74.8685 307.643 74.8685 308.56C74.8685 309.52 74.6338 310 74.1645 310H73.7485C73.0445 310 72.3618 309.872 71.7005 309.616C71.0605 309.36 70.4738 308.795 69.9405 307.92C69.4925 308.731 68.9272 309.285 68.2445 309.584C67.5832 309.861 66.8578 310 66.0685 310H59.1885L59.0285 307.184H65.7805ZM75.4363 307.184C77.1216 307.184 77.9643 306.405 77.9643 304.848V300.752H80.5883V304.848C80.5883 305.275 80.6629 305.637 80.8123 305.936C80.9616 306.235 81.1536 306.48 81.3883 306.672C81.6229 306.843 81.8896 306.971 82.1883 307.056C82.5083 307.141 82.8283 307.184 83.1483 307.184C84.9829 307.184 85.9003 306.405 85.9003 304.848V300.752H88.5243V304.848C88.5243 305.723 88.7483 306.331 89.1963 306.672C89.6656 307.013 90.2096 307.184 90.8283 307.184C91.5749 307.184 92.1509 306.981 92.5563 306.576C92.9829 306.171 93.1963 305.595 93.1963 304.848V300.752H95.8203V304.848C95.8203 305.275 95.8843 305.637 96.0123 305.936C96.1616 306.235 96.3536 306.48 96.5883 306.672C96.8229 306.843 97.0896 306.971 97.3883 307.056C97.6869 307.141 97.9856 307.184 98.2843 307.184H98.9563C99.4256 307.184 99.6603 307.643 99.6603 308.56C99.6603 309.52 99.4256 310 98.9563 310H98.2843C97.4949 310 96.7589 309.861 96.0763 309.584C95.4149 309.307 94.8603 308.763 94.4123 307.952C93.9216 308.763 93.3456 309.307 92.6843 309.584C92.0443 309.861 91.4256 310 90.8283 310C90.0816 310 89.3883 309.861 88.7483 309.584C88.1083 309.307 87.5643 308.763 87.1163 307.952C86.6256 308.763 86.0283 309.307 85.3243 309.584C84.6203 309.861 83.8949 310 83.1483 310C82.3376 310 81.5803 309.861 80.8763 309.584C80.1936 309.307 79.6283 308.763 79.1803 307.952C78.6896 308.763 78.1136 309.307 77.4523 309.584C76.7909 309.861 76.0869 310 75.3403 310H74.1562C73.8789 310 73.6976 309.893 73.6122 309.68C73.5056 309.445 73.4522 309.104 73.4522 308.656C73.4522 308.144 73.5056 307.771 73.6122 307.536C73.6976 307.301 73.8789 307.184 74.1562 307.184H75.4363ZM88.6843 292.688H85.7403V290.032H88.6843V292.688ZM90.7963 296.816H87.8843V294.128H90.7963V296.816ZM86.5083 296.816H83.5963V294.128H86.5083V296.816ZM101.881 307.184C102.649 307.184 103.246 306.981 103.673 306.576C104.121 306.171 104.345 305.595 104.345 304.848V300.752H106.969V304.976C106.969 306.597 106.531 307.845 105.657 308.72C104.803 309.573 103.609 310 102.073 310H98.9688C98.6914 310 98.5101 309.893 98.4247 309.68C98.3181 309.445 98.2647 309.104 98.2647 308.656C98.2647 308.144 98.3181 307.771 98.4247 307.536C98.5101 307.301 98.6914 307.184 98.9688 307.184H101.881ZM106.073 296.816H102.937V294.064H106.073V296.816ZM131.134 307.184C132.776 307.184 133.598 306.405 133.598 304.848V300.752H136.222V304.848C136.222 305.275 136.286 305.637 136.414 305.936C136.563 306.235 136.755 306.48 136.99 306.672C137.246 306.843 137.523 306.971 137.822 307.056C138.142 307.141 138.462 307.184 138.782 307.184H139.358C139.635 307.184 139.816 307.301 139.902 307.536C140.008 307.749 140.062 308.091 140.062 308.56C140.062 309.051 140.008 309.413 139.902 309.648C139.816 309.883 139.635 310 139.358 310H138.686C137.918 310 137.192 309.861 136.51 309.584C135.848 309.307 135.283 308.763 134.814 307.952C134.323 308.763 133.758 309.307 133.118 309.584C132.499 309.861 131.838 310 131.134 310H120.03C119.155 310 118.398 309.872 117.758 309.616C117.139 309.339 116.627 308.976 116.222 308.528C115.838 308.08 115.55 307.557 115.358 306.96C115.187 306.363 115.102 305.733 115.102 305.072V300.656H117.726V304.432C117.726 305.264 117.928 305.936 118.334 306.448C118.739 306.939 119.496 307.184 120.606 307.184H131.134ZM129.246 298.032H126.334V295.344H129.246V298.032ZM124.958 298.032H122.046V295.344H124.958V298.032ZM143.568 307.184C144.186 307.184 144.688 307.195 145.072 307.216C145.456 307.216 145.893 307.248 146.384 307.312C145.381 306.949 144.592 306.587 144.016 306.224C143.44 305.84 143.002 305.445 142.704 305.04C142.426 304.613 142.245 304.155 142.16 303.664C142.074 303.173 142.032 302.619 142.032 302C142.032 301.424 142.138 300.827 142.352 300.208C142.586 299.589 142.928 299.035 143.376 298.544C143.824 298.032 144.378 297.616 145.04 297.296C145.722 296.976 146.501 296.816 147.376 296.816C148.208 296.816 148.954 296.923 149.616 297.136C150.298 297.349 150.874 297.712 151.344 298.224C151.834 298.715 152.208 299.365 152.464 300.176C152.741 300.965 152.88 301.936 152.88 303.088V304.624C152.88 306.288 152.378 307.6 151.376 308.56C150.394 309.52 148.837 310 146.704 310H139.344C139.066 310 138.885 309.893 138.8 309.68C138.693 309.445 138.64 309.104 138.64 308.656C138.64 308.144 138.693 307.771 138.8 307.536C138.885 307.301 139.066 307.184 139.344 307.184H143.568ZM147.248 299.664C146.8 299.664 146.405 299.749 146.064 299.92C145.722 300.069 145.424 300.272 145.168 300.528C144.933 300.784 144.752 301.083 144.624 301.424C144.517 301.744 144.464 302.075 144.464 302.416C144.464 302.779 144.496 303.12 144.56 303.44C144.645 303.739 144.848 304.048 145.168 304.368C145.509 304.688 146.021 305.029 146.704 305.392C147.386 305.733 148.325 306.128 149.52 306.576C149.776 306.341 149.968 306.021 150.096 305.616C150.245 305.211 150.32 304.773 150.32 304.304V303.344C150.32 302.213 150.085 301.317 149.616 300.656C149.168 299.995 148.378 299.664 147.248 299.664ZM148.944 293.904H145.808V291.152H148.944V293.904ZM161.027 310C160.451 310 159.897 309.925 159.363 309.776C158.83 309.605 158.361 309.328 157.955 308.944C157.571 308.56 157.262 308.059 157.027 307.44C156.793 306.8 156.675 306.011 156.675 305.072V290.16H159.299V304.496C159.299 305.307 159.47 305.957 159.811 306.448C160.174 306.939 160.739 307.184 161.507 307.184H162.147C162.617 307.184 162.851 307.643 162.851 308.56C162.851 309.52 162.617 310 162.147 310H161.027ZM165.068 307.184C165.836 307.184 166.434 306.981 166.86 306.576C167.308 306.171 167.532 305.595 167.532 304.848V300.752H170.156V304.976C170.156 306.597 169.719 307.845 168.844 308.72C167.991 309.573 166.796 310 165.26 310H162.156C161.879 310 161.698 309.893 161.612 309.68C161.506 309.445 161.452 309.104 161.452 308.656C161.452 308.144 161.506 307.771 161.612 307.536C161.698 307.301 161.879 307.184 162.156 307.184H165.068ZM169.484 316.336H166.668V313.648H169.484V316.336ZM165.132 316.336H162.284V313.648H165.132V316.336ZM183.121 310C182.545 310 181.99 309.925 181.457 309.776C180.924 309.605 180.454 309.328 180.049 308.944C179.665 308.56 179.356 308.059 179.121 307.44C178.886 306.8 178.769 306.011 178.769 305.072V290.16H181.393V304.496C181.393 305.307 181.564 305.957 181.905 306.448C182.268 306.939 182.833 307.184 183.601 307.184H184.241C184.71 307.184 184.945 307.643 184.945 308.56C184.945 309.52 184.71 310 184.241 310H183.121ZM184.666 307.184C186.287 307.184 187.098 306.501 187.098 305.136V304.144C187.098 302.331 187.567 300.901 188.506 299.856C189.466 298.789 190.789 298.256 192.474 298.256C193.349 298.256 194.117 298.405 194.778 298.704C195.439 298.981 195.994 299.376 196.442 299.888C196.89 300.379 197.221 300.976 197.434 301.68C197.669 302.384 197.786 303.152 197.786 303.984V304.816C197.786 305.712 198.01 306.331 198.458 306.672C198.927 307.013 199.471 307.184 200.09 307.184H200.602C200.879 307.184 201.061 307.301 201.146 307.536C201.253 307.749 201.306 308.091 201.306 308.56C201.306 309.051 201.253 309.413 201.146 309.648C201.061 309.883 200.879 310 200.602 310H200.09C199.77 310 199.439 309.968 199.098 309.904C198.778 309.84 198.469 309.733 198.17 309.584C197.871 309.413 197.583 309.189 197.306 308.912C197.029 308.613 196.783 308.229 196.57 307.76C195.994 308.677 195.333 309.285 194.586 309.584C193.839 309.861 193.071 310 192.282 310C191.429 310 190.629 309.84 189.882 309.52C189.135 309.179 188.549 308.613 188.122 307.824C187.93 308.272 187.695 308.645 187.418 308.944C187.141 309.221 186.853 309.445 186.554 309.616C186.255 309.765 185.935 309.872 185.594 309.936C185.274 309.979 184.965 310 184.666 310H184.25C183.973 310 183.791 309.893 183.706 309.68C183.599 309.445 183.546 309.104 183.546 308.656C183.546 308.144 183.599 307.771 183.706 307.536C183.791 307.301 183.973 307.184 184.25 307.184H184.666ZM195.226 304.272C195.226 303.333 195.013 302.565 194.586 301.968C194.181 301.371 193.455 301.072 192.41 301.072C191.45 301.072 190.735 301.36 190.266 301.936C189.818 302.512 189.594 303.323 189.594 304.368C189.594 305.307 189.85 306.011 190.362 306.48C190.895 306.949 191.567 307.184 192.378 307.184C193.338 307.184 194.053 306.939 194.522 306.448C194.991 305.936 195.226 305.211 195.226 304.272ZM201.874 307.184C203.559 307.184 204.402 306.405 204.402 304.848V300.752H207.026V304.848C207.026 305.275 207.1 305.637 207.25 305.936C207.399 306.235 207.591 306.48 207.826 306.672C208.06 306.843 208.327 306.971 208.626 307.056C208.946 307.141 209.266 307.184 209.586 307.184C211.42 307.184 212.338 306.405 212.338 304.848V300.752H214.962V304.848C214.962 305.723 215.186 306.331 215.634 306.672C216.103 307.013 216.647 307.184 217.266 307.184C217.991 307.184 218.567 306.981 218.994 306.576C219.42 306.171 219.634 305.595 219.634 304.848V300.752H222.258V304.976C222.258 306.597 221.82 307.845 220.946 308.72C220.071 309.573 218.876 310 217.362 310C216.615 310 215.9 309.861 215.218 309.584C214.556 309.307 214.002 308.763 213.554 307.952C213.063 308.763 212.466 309.307 211.762 309.584C211.058 309.861 210.332 310 209.586 310C208.775 310 208.018 309.861 207.314 309.584C206.631 309.307 206.066 308.763 205.618 307.952C205.127 308.763 204.551 309.307 203.89 309.584C203.228 309.861 202.524 310 201.778 310H200.594C200.316 310 200.135 309.893 200.05 309.68C199.943 309.445 199.89 309.104 199.89 308.656C199.89 308.144 199.943 307.771 200.05 307.536C200.135 307.301 200.316 307.184 200.594 307.184H201.874ZM215.122 292.688H212.178V290.032H215.122V292.688ZM217.234 296.816H214.322V294.128H217.234V296.816ZM212.946 296.816H210.034V294.128H212.946V296.816ZM236.881 309.488C236.881 310.683 236.689 311.781 236.305 312.784C235.921 313.808 235.388 314.683 234.705 315.408C234.044 316.155 233.244 316.731 232.305 317.136C231.388 317.541 230.385 317.744 229.297 317.744H227.345L227.185 314.96H228.657C229.681 314.96 230.556 314.8 231.281 314.48C231.985 314.181 232.561 313.776 233.009 313.264C233.479 312.752 233.82 312.165 234.033 311.504C234.247 310.864 234.353 310.192 234.353 309.488V300.752H236.977V304.944C236.977 305.648 237.201 306.203 237.649 306.608C238.119 306.992 238.727 307.184 239.473 307.184H239.825C240.295 307.184 240.529 307.643 240.529 308.56C240.529 309.52 240.295 310 239.825 310H239.473C239.004 310 238.535 309.915 238.065 309.744C237.596 309.573 237.201 309.264 236.881 308.816V309.488ZM242.757 290.16H245.381V299.504C245.381 300.208 245.37 300.891 245.349 301.552C245.349 302.213 245.327 302.885 245.285 303.568C246.458 301.755 247.567 300.411 248.613 299.536C249.658 298.661 250.714 298.149 251.781 298C252.293 297.936 252.783 297.957 253.253 298.064C253.957 298.171 254.597 298.395 255.173 298.736C255.749 299.077 256.229 299.515 256.613 300.048C257.018 300.581 257.327 301.2 257.541 301.904C257.775 302.587 257.892 303.312 257.892 304.08C257.892 304.955 257.701 305.744 257.317 306.448C257.722 306.789 258.149 307.003 258.597 307.088C259.066 307.152 259.578 307.184 260.133 307.184H260.581C261.05 307.184 261.285 307.643 261.285 308.56C261.285 309.52 261.05 310 260.581 310H260.133C259.514 310 258.863 309.947 258.181 309.84C257.498 309.712 256.815 309.296 256.133 308.592C255.642 309.019 255.066 309.36 254.405 309.616C253.765 309.872 253.018 310 252.165 310H239.812C239.535 310 239.354 309.893 239.268 309.68C239.162 309.445 239.108 309.104 239.108 308.656C239.108 308.144 239.162 307.771 239.268 307.536C239.354 307.301 239.535 307.184 239.812 307.184H242.757V290.16ZM255.269 304.08C255.269 303.632 255.194 303.205 255.045 302.8C254.895 302.395 254.682 302.043 254.405 301.744C254.127 301.445 253.797 301.211 253.413 301.04C253.05 300.848 252.634 300.752 252.165 300.752C251.674 300.752 251.183 300.869 250.693 301.104C250.223 301.339 249.711 301.712 249.157 302.224C248.623 302.736 248.047 303.408 247.429 304.24C246.81 305.051 246.117 306.032 245.349 307.184H252.261C253.071 307.184 253.775 306.939 254.373 306.448C254.97 305.936 255.269 305.147 255.269 304.08ZM254.053 294.192H250.917V291.44H254.053V294.192ZM263.506 307.184C264.274 307.184 264.871 306.981 265.298 306.576C265.746 306.171 265.97 305.595 265.97 304.848V300.752H268.594V304.976C268.594 306.597 268.156 307.845 267.282 308.72C266.428 309.573 265.234 310 263.698 310H260.594C260.316 310 260.135 309.893 260.05 309.68C259.943 309.445 259.89 309.104 259.89 308.656C259.89 308.144 259.943 307.771 260.05 307.536C260.135 307.301 260.316 307.184 260.594 307.184H263.506ZM267.698 296.816H264.562V294.064H267.698V296.816ZM288.375 302.192C288.929 302.832 289.335 303.472 289.591 304.112C289.847 304.731 289.975 305.339 289.975 305.936C289.975 306.512 289.868 307.045 289.655 307.536C289.441 308.027 289.132 308.453 288.727 308.816C288.343 309.179 287.852 309.467 287.255 309.68C286.657 309.893 285.975 310 285.207 310H276.439L276.279 307.184H284.823C285.505 307.184 286.028 307.035 286.391 306.736C286.753 306.416 286.935 306.011 286.935 305.52C286.935 304.965 286.689 304.421 286.199 303.888L280.503 297.392L282.551 295.472L288.375 302.192ZM297.227 309.488C297.227 310.683 297.025 311.781 296.619 312.784C296.235 313.808 295.702 314.683 295.019 315.408C294.337 316.155 293.526 316.731 292.587 317.136C291.649 317.541 290.635 317.744 289.547 317.744H287.595L287.435 314.96H288.907C289.931 314.96 290.806 314.8 291.531 314.48C292.235 314.181 292.811 313.776 293.259 313.264C293.729 312.752 294.07 312.165 294.283 311.504C294.497 310.864 294.603 310.192 294.603 309.488V300.752H297.227V309.488ZM303.64 314.96C304.515 314.96 305.283 314.821 305.944 314.544C306.605 314.288 307.149 313.936 307.576 313.488C308.024 313.04 308.365 312.517 308.6 311.92C308.835 311.323 308.973 310.683 309.016 310H306.296C305.208 310 304.312 309.883 303.608 309.648C302.904 309.413 302.349 309.072 301.944 308.624C301.539 308.176 301.251 307.632 301.08 306.992C300.931 306.331 300.856 305.595 300.856 304.784C300.856 303.973 300.973 303.205 301.208 302.48C301.443 301.733 301.784 301.083 302.232 300.528C302.68 299.973 303.235 299.536 303.896 299.216C304.579 298.875 305.368 298.704 306.264 298.704C306.968 298.704 307.64 298.821 308.28 299.056C308.941 299.291 309.517 299.664 310.008 300.176C310.499 300.667 310.883 301.317 311.16 302.128C311.459 302.939 311.608 303.92 311.608 305.072V307.184H314.456C314.712 307.184 314.883 307.301 314.968 307.536C315.075 307.749 315.128 308.091 315.128 308.56C315.128 309.051 315.075 309.413 314.968 309.648C314.883 309.883 314.712 310 314.456 310H311.544C311.501 311.045 311.288 312.037 310.904 312.976C310.541 313.915 310.029 314.736 309.368 315.44C308.707 316.144 307.907 316.699 306.968 317.104C306.029 317.531 304.984 317.744 303.832 317.744H300.504L300.312 314.96H303.64ZM303.352 304.624C303.352 305.541 303.565 306.203 303.992 306.608C304.44 306.992 305.293 307.184 306.552 307.184H309.08V305.2C309.08 303.856 308.813 302.896 308.28 302.32C307.768 301.723 307.043 301.424 306.104 301.424C305.229 301.424 304.547 301.712 304.056 302.288C303.587 302.843 303.352 303.621 303.352 304.624ZM314.885 307.184C316.506 307.184 317.317 306.501 317.317 305.136V304.144C317.317 302.331 317.786 300.901 318.725 299.856C319.685 298.789 321.007 298.256 322.693 298.256C323.567 298.256 324.335 298.405 324.997 298.704C325.658 298.981 326.213 299.376 326.661 299.888C327.109 300.4 327.439 301.019 327.653 301.744C327.887 302.448 328.005 303.227 328.005 304.08C328.005 305.957 327.525 307.419 326.565 308.464C325.605 309.488 324.282 310 322.597 310C321.743 310 320.922 309.84 320.133 309.52C319.365 309.179 318.767 308.613 318.341 307.824C318.149 308.272 317.914 308.645 317.637 308.944C317.359 309.221 317.071 309.445 316.773 309.616C316.474 309.765 316.154 309.872 315.813 309.936C315.493 309.979 315.183 310 314.885 310H314.469C314.191 310 314.01 309.893 313.925 309.68C313.818 309.445 313.765 309.104 313.765 308.656C313.765 308.144 313.818 307.771 313.925 307.536C314.01 307.301 314.191 307.184 314.469 307.184H314.885ZM325.445 304.272C325.445 303.333 325.231 302.565 324.805 301.968C324.399 301.371 323.674 301.072 322.629 301.072C321.669 301.072 320.954 301.36 320.485 301.936C320.037 302.512 319.813 303.323 319.813 304.368C319.813 305.307 320.069 306.011 320.581 306.48C321.114 306.949 321.786 307.184 322.597 307.184C323.557 307.184 324.271 306.939 324.741 306.448C325.21 305.936 325.445 305.211 325.445 304.272ZM341.446 306.064C342.448 306.064 343.216 305.861 343.75 305.456C344.304 305.051 344.582 304.539 344.582 303.92V299.92H341.702C340.699 299.92 339.942 300.24 339.43 300.88C338.939 301.52 338.694 302.363 338.694 303.408C338.694 304.389 338.918 305.083 339.366 305.488C339.835 305.872 340.528 306.064 341.446 306.064ZM347.142 304.496C347.142 305.307 347.302 305.957 347.622 306.448C347.942 306.939 348.507 307.184 349.318 307.184H349.958C350.235 307.184 350.416 307.301 350.502 307.536C350.608 307.749 350.662 308.091 350.662 308.56C350.662 309.051 350.608 309.413 350.502 309.648C350.416 309.883 350.235 310 349.958 310H349.318C348.294 310 347.43 309.808 346.726 309.424C346.043 309.019 345.542 308.304 345.222 307.28C344.966 307.6 344.656 307.856 344.294 308.048C343.952 308.24 343.59 308.389 343.206 308.496C342.822 308.603 342.427 308.677 342.022 308.72C341.616 308.763 341.243 308.784 340.902 308.784C339.366 308.784 338.192 308.357 337.382 307.504C336.571 306.651 336.166 305.36 336.166 303.632C336.166 302.843 336.272 302.075 336.486 301.328C336.72 300.56 337.062 299.877 337.51 299.28C337.958 298.683 338.512 298.203 339.174 297.84C339.856 297.477 340.646 297.296 341.542 297.296H344.582V295.12H347.142V304.496ZM363.921 305.392C364.262 306.075 364.635 306.544 365.041 306.8C365.467 307.056 366.022 307.184 366.705 307.184H368.689C368.966 307.184 369.147 307.301 369.233 307.536C369.339 307.749 369.393 308.091 369.393 308.56C369.393 309.051 369.339 309.413 369.233 309.648C369.147 309.883 368.966 310 368.689 310H366.545C365.841 310 365.243 309.915 364.753 309.744C364.262 309.552 363.846 309.307 363.505 309.008C363.163 308.688 362.875 308.315 362.641 307.888C362.427 307.461 362.235 306.992 362.065 306.48L359.185 308.144C358.63 308.485 358.086 308.773 357.553 309.008C357.019 309.243 356.443 309.435 355.825 309.584C355.227 309.733 354.566 309.84 353.841 309.904C353.115 309.968 352.283 310 351.345 310H349.969C349.691 310 349.51 309.893 349.425 309.68C349.318 309.445 349.265 309.104 349.265 308.656C349.265 308.144 349.318 307.771 349.425 307.536C349.51 307.301 349.691 307.184 349.969 307.184H351.441C352.251 307.184 352.966 307.163 353.585 307.12C354.225 307.077 354.811 307.003 355.345 306.896C355.878 306.789 356.379 306.651 356.849 306.48C357.318 306.288 357.798 306.053 358.289 305.776L363.057 303.024C362.886 302.64 362.715 302.309 362.545 302.032C362.395 301.733 362.193 301.477 361.937 301.264C361.681 301.051 361.371 300.891 361.009 300.784C360.646 300.677 360.187 300.624 359.633 300.624H352.657L352.849 297.808H360.017C360.593 297.808 361.169 297.883 361.745 298.032C362.342 298.181 362.897 298.48 363.409 298.928C363.942 299.376 364.433 300.016 364.881 300.848C365.329 301.68 365.702 302.779 366.001 304.144L363.921 305.392ZM374.096 307.184C373.2 306.544 372.517 305.851 372.048 305.104C371.6 304.336 371.376 303.483 371.376 302.544C371.376 301.84 371.504 301.157 371.76 300.496C372.037 299.835 372.421 299.259 372.911 298.768C373.402 298.256 374 297.851 374.704 297.552C375.429 297.232 376.229 297.072 377.104 297.072C377.978 297.072 378.746 297.232 379.408 297.552C380.069 297.851 380.613 298.256 381.04 298.768C381.488 299.259 381.818 299.824 382.032 300.464C382.266 301.083 382.384 301.712 382.384 302.352C382.384 304.293 381.552 305.904 379.888 307.184H385.072C385.541 307.184 385.776 307.643 385.776 308.56C385.776 309.52 385.541 310 385.072 310H381.68C380.698 310 379.824 309.968 379.056 309.904C378.288 309.84 377.69 309.691 377.264 309.456C376.965 309.584 376.592 309.691 376.144 309.776C375.717 309.84 375.269 309.893 374.8 309.936C374.352 309.957 373.904 309.979 373.456 310C373.029 310 372.666 310 372.368 310H368.688C368.41 310 368.229 309.893 368.143 309.68C368.037 309.445 367.983 309.104 367.983 308.656C367.983 308.144 368.037 307.771 368.143 307.536C368.229 307.301 368.41 307.184 368.688 307.184H374.096ZM376.88 299.888C375.984 299.888 375.258 300.187 374.704 300.784C374.17 301.36 373.904 302.075 373.904 302.928C373.904 303.376 373.989 303.803 374.16 304.208C374.352 304.592 374.597 304.944 374.896 305.264C375.216 305.584 375.557 305.872 375.92 306.128C376.304 306.363 376.688 306.565 377.072 306.736C377.392 306.565 377.712 306.363 378.032 306.128C378.373 305.872 378.672 305.584 378.928 305.264C379.205 304.944 379.429 304.603 379.6 304.24C379.77 303.856 379.856 303.44 379.856 302.992C379.856 302.075 379.578 301.328 379.024 300.752C378.49 300.176 377.776 299.888 376.88 299.888ZM378.64 294.256H375.504V291.504H378.64V294.256ZM393.415 307.12C394.332 305.477 395.196 304.08 396.007 302.928C396.817 301.755 397.607 300.805 398.375 300.08C399.143 299.333 399.889 298.789 400.615 298.448C401.34 298.107 402.076 297.936 402.823 297.936C403.655 297.936 404.412 298.096 405.095 298.416C405.799 298.736 406.385 299.173 406.855 299.728C407.345 300.283 407.719 300.933 407.975 301.68C408.252 302.427 408.391 303.227 408.391 304.08C408.391 304.805 408.273 305.52 408.039 306.224C407.825 306.928 407.473 307.568 406.983 308.144C406.513 308.699 405.916 309.147 405.191 309.488C404.465 309.829 403.612 310 402.631 310H393.863C393.052 310 392.295 309.861 391.591 309.584C390.908 309.307 390.343 308.763 389.895 307.952C389.404 308.763 388.828 309.307 388.167 309.584C387.505 309.861 386.801 310 386.055 310H385.062C384.785 310 384.604 309.893 384.518 309.68C384.412 309.445 384.358 309.104 384.358 308.656C384.358 308.144 384.412 307.771 384.518 307.536C384.604 307.301 384.785 307.184 385.062 307.184H386.118C387.825 307.184 388.679 306.405 388.679 304.848V300.752H391.303V304.848C391.303 305.531 391.495 306.064 391.879 306.448C392.284 306.811 392.796 307.035 393.415 307.12ZM405.735 304.08C405.735 303.632 405.66 303.205 405.511 302.8C405.361 302.395 405.148 302.043 404.871 301.744C404.615 301.445 404.295 301.211 403.911 301.04C403.527 300.848 403.1 300.752 402.631 300.752C401.671 300.752 400.657 301.253 399.591 302.256C398.545 303.259 397.351 304.901 396.007 307.184H402.727C403.537 307.184 404.241 306.939 404.839 306.448C405.436 305.936 405.735 305.147 405.735 304.08ZM421.696 306.064C422.698 306.064 423.466 305.861 424 305.456C424.554 305.051 424.832 304.539 424.832 303.92V299.92H421.952C420.949 299.92 420.192 300.24 419.68 300.88C419.189 301.52 418.944 302.363 418.944 303.408C418.944 304.389 419.168 305.083 419.616 305.488C420.085 305.872 420.778 306.064 421.696 306.064ZM427.392 304.496C427.392 305.307 427.552 305.957 427.872 306.448C428.192 306.939 428.757 307.184 429.568 307.184H430.208C430.485 307.184 430.666 307.301 430.752 307.536C430.858 307.749 430.912 308.091 430.912 308.56C430.912 309.051 430.858 309.413 430.752 309.648C430.666 309.883 430.485 310 430.208 310H429.568C428.544 310 427.68 309.808 426.976 309.424C426.293 309.019 425.792 308.304 425.472 307.28C425.216 307.6 424.906 307.856 424.544 308.048C424.202 308.24 423.84 308.389 423.456 308.496C423.072 308.603 422.677 308.677 422.272 308.72C421.866 308.763 421.493 308.784 421.152 308.784C419.616 308.784 418.442 308.357 417.632 307.504C416.821 306.651 416.416 305.36 416.416 303.632C416.416 302.843 416.522 302.075 416.736 301.328C416.97 300.56 417.312 299.877 417.76 299.28C418.208 298.683 418.762 298.203 419.424 297.84C420.106 297.477 420.896 297.296 421.792 297.296H424.832V295.12H427.392V304.496ZM433.131 307.184C433.899 307.184 434.496 306.981 434.923 306.576C435.371 306.171 435.595 305.595 435.595 304.848V300.752H438.219V304.976C438.219 306.597 437.781 307.845 436.907 308.72C436.053 309.573 434.859 310 433.323 310H430.219C429.941 310 429.76 309.893 429.675 309.68C429.568 309.445 429.515 309.104 429.515 308.656C429.515 308.144 429.568 307.771 429.675 307.536C429.76 307.301 429.941 307.184 430.219 307.184H433.131ZM437.323 296.816H434.187V294.064H437.323V296.816ZM446.465 310C445.889 310 445.334 309.925 444.801 309.776C444.267 309.605 443.798 309.328 443.393 308.944C443.009 308.56 442.699 308.059 442.465 307.44C442.23 306.8 442.113 306.011 442.113 305.072V290.16H444.737V304.496C444.737 305.307 444.907 305.957 445.249 306.448C445.611 306.939 446.177 307.184 446.945 307.184H447.585C448.054 307.184 448.289 307.643 448.289 308.56C448.289 309.52 448.054 310 447.585 310H446.465ZM449.93 307.184C451.594 307.184 452.426 306.405 452.426 304.848V300.752H455.05V304.848C455.05 305.275 455.114 305.637 455.242 305.936C455.391 306.235 455.583 306.48 455.818 306.672C456.052 306.843 456.319 306.971 456.618 307.056C456.938 307.141 457.258 307.184 457.578 307.184H458.474C458.964 307.184 459.21 307.643 459.21 308.56C459.21 309.52 458.964 310 458.474 310H457.482C456.714 310 455.988 309.861 455.306 309.584C454.644 309.307 454.09 308.763 453.642 307.952C453.151 308.763 452.586 309.307 451.946 309.584C451.327 309.861 450.655 310 449.93 310H447.594C447.316 310 447.135 309.893 447.05 309.68C446.943 309.445 446.89 309.104 446.89 308.656C446.89 308.144 446.943 307.771 447.05 307.536C447.135 307.301 447.316 307.184 447.594 307.184H449.93ZM456.938 296.816H454.026V294.128H456.938V296.816ZM452.65 296.816H449.738V294.128H452.65V296.816ZM463.877 307.184C462.981 306.544 462.298 305.851 461.829 305.104C461.381 304.336 461.157 303.483 461.157 302.544C461.157 301.84 461.285 301.157 461.541 300.496C461.818 299.835 462.202 299.259 462.693 298.768C463.183 298.256 463.781 297.851 464.485 297.552C465.21 297.232 466.01 297.072 466.885 297.072C467.759 297.072 468.527 297.232 469.189 297.552C469.85 297.851 470.394 298.256 470.821 298.768C471.269 299.259 471.599 299.824 471.813 300.464C472.047 301.083 472.165 301.712 472.165 302.352C472.165 304.293 471.333 305.904 469.669 307.184H474.853C475.322 307.184 475.557 307.643 475.557 308.56C475.557 309.52 475.322 310 474.853 310H471.461C470.479 310 469.605 309.968 468.837 309.904C468.069 309.84 467.471 309.691 467.045 309.456C466.746 309.584 466.373 309.691 465.925 309.776C465.498 309.84 465.05 309.893 464.581 309.936C464.133 309.957 463.685 309.979 463.237 310C462.81 310 462.447 310 462.149 310H458.469C458.191 310 458.01 309.893 457.925 309.68C457.818 309.445 457.765 309.104 457.765 308.656C457.765 308.144 457.818 307.771 457.925 307.536C458.01 307.301 458.191 307.184 458.469 307.184H463.877ZM466.661 299.888C465.765 299.888 465.039 300.187 464.485 300.784C463.951 301.36 463.685 302.075 463.685 302.928C463.685 303.376 463.77 303.803 463.941 304.208C464.133 304.592 464.378 304.944 464.677 305.264C464.997 305.584 465.338 305.872 465.701 306.128C466.085 306.363 466.469 306.565 466.853 306.736C467.173 306.565 467.493 306.363 467.813 306.128C468.154 305.872 468.453 305.584 468.709 305.264C468.986 304.944 469.21 304.603 469.381 304.24C469.551 303.856 469.637 303.44 469.637 302.992C469.637 302.075 469.359 301.328 468.805 300.752C468.271 300.176 467.557 299.888 466.661 299.888ZM468.421 294.256H465.285V291.504H468.421V294.256ZM476.124 307.184C477.809 307.184 478.652 306.405 478.652 304.848V300.752H481.276V304.848C481.276 305.275 481.35 305.637 481.5 305.936C481.649 306.235 481.841 306.48 482.076 306.672C482.31 306.843 482.577 306.971 482.876 307.056C483.196 307.141 483.516 307.184 483.836 307.184C485.67 307.184 486.588 306.405 486.588 304.848V300.752H489.212V304.848C489.212 305.723 489.436 306.331 489.884 306.672C490.353 307.013 490.897 307.184 491.516 307.184C492.241 307.184 492.817 306.981 493.244 306.576C493.67 306.171 493.884 305.595 493.884 304.848V300.752H496.508V304.976C496.508 306.597 496.07 307.845 495.196 308.72C494.321 309.573 493.126 310 491.612 310C490.865 310 490.15 309.861 489.468 309.584C488.806 309.307 488.252 308.763 487.804 307.952C487.313 308.763 486.716 309.307 486.012 309.584C485.308 309.861 484.582 310 483.836 310C483.025 310 482.268 309.861 481.564 309.584C480.881 309.307 480.316 308.763 479.868 307.952C479.377 308.763 478.801 309.307 478.14 309.584C477.478 309.861 476.774 310 476.028 310H474.844C474.566 310 474.385 309.893 474.3 309.68C474.193 309.445 474.14 309.104 474.14 308.656C474.14 308.144 474.193 307.771 474.3 307.536C474.385 307.301 474.566 307.184 474.844 307.184H476.124ZM504.746 310C504.17 310 503.615 309.925 503.082 309.776C502.549 309.605 502.079 309.328 501.674 308.944C501.29 308.56 500.981 308.059 500.746 307.44C500.511 306.8 500.394 306.011 500.394 305.072V290.16H503.018V304.496C503.018 305.307 503.189 305.957 503.53 306.448C503.893 306.939 504.458 307.184 505.226 307.184H505.866C506.335 307.184 506.57 307.643 506.57 308.56C506.57 309.52 506.335 310 505.866 310H504.746ZM508.211 307.184C509.875 307.184 510.707 306.405 510.707 304.848V300.752H513.331V304.848C513.331 305.275 513.395 305.637 513.523 305.936C513.672 306.235 513.864 306.48 514.099 306.672C514.334 306.843 514.6 306.971 514.899 307.056C515.219 307.141 515.539 307.184 515.859 307.184H516.755C517.246 307.184 517.491 307.643 517.491 308.56C517.491 309.52 517.246 310 516.755 310H515.763C514.995 310 514.27 309.861 513.587 309.584C512.926 309.307 512.371 308.763 511.923 307.952C511.432 308.763 510.867 309.307 510.227 309.584C509.608 309.861 508.936 310 508.211 310H505.875C505.598 310 505.416 309.893 505.331 309.68C505.224 309.445 505.171 309.104 505.171 308.656C505.171 308.144 505.224 307.771 505.331 307.536C505.416 307.301 505.598 307.184 505.875 307.184H508.211ZM515.219 296.816H512.307V294.128H515.219V296.816ZM510.931 296.816H508.019V294.128H510.931V296.816ZM517.166 307.184C518.787 307.184 519.598 306.501 519.598 305.136V304.144C519.598 302.331 520.067 300.901 521.006 299.856C521.966 298.789 523.289 298.256 524.974 298.256C525.849 298.256 526.617 298.405 527.278 298.704C527.939 298.981 528.494 299.376 528.942 299.888C529.39 300.4 529.721 301.019 529.934 301.744C530.169 302.448 530.286 303.227 530.286 304.08C530.286 305.957 529.806 307.419 528.846 308.464C527.886 309.488 526.563 310 524.878 310C524.025 310 523.203 309.84 522.414 309.52C521.646 309.179 521.049 308.613 520.622 307.824C520.43 308.272 520.195 308.645 519.918 308.944C519.641 309.221 519.353 309.445 519.054 309.616C518.755 309.765 518.435 309.872 518.094 309.936C517.774 309.979 517.465 310 517.166 310H516.75C516.473 310 516.291 309.893 516.206 309.68C516.099 309.445 516.046 309.104 516.046 308.656C516.046 308.144 516.099 307.771 516.206 307.536C516.291 307.301 516.473 307.184 516.75 307.184H517.166ZM527.726 304.272C527.726 303.333 527.513 302.565 527.086 301.968C526.681 301.371 525.955 301.072 524.91 301.072C523.95 301.072 523.235 301.36 522.766 301.936C522.318 302.512 522.094 303.323 522.094 304.368C522.094 305.307 522.35 306.011 522.862 306.48C523.395 306.949 524.067 307.184 524.878 307.184C525.838 307.184 526.553 306.939 527.022 306.448C527.491 305.936 527.726 305.211 527.726 304.272Z" fill="#C4C4C4"/>
<path d="M145.613 143.746C145.115 140.92 144.782 138.843 144.616 137.513C144.45 136.018 144.367 134.356 144.367 132.527C144.367 126.212 145.447 120.395 147.608 115.077C149.934 109.759 153.092 105.189 157.081 101.366C161.069 97.3775 165.723 94.303 171.041 92.1424C176.359 89.9819 182.093 88.9017 188.242 88.9017C192.397 88.9017 197.05 89.3172 202.202 90.1481C207.354 90.9791 213.67 92.8072 221.148 95.6325L211.426 135.27C205.277 134.106 200.873 133.358 198.214 133.026C195.554 132.694 193.145 132.527 190.984 132.527C185.5 132.527 182.758 134.605 182.758 138.76C182.758 142.915 185.084 144.992 189.738 144.992C193.56 144.992 197.715 144.41 202.202 143.247C206.689 142.084 211.592 140.837 216.91 139.508L226.633 179.145C216.329 182.635 206.773 185.128 197.964 186.623C189.322 188.119 181.511 188.867 174.531 188.867C169.878 188.867 164.559 188.618 158.576 188.119C152.593 187.454 146.943 186.208 141.625 184.38V243.711H96.5031V183.383C96.5031 175.572 96.2538 168.425 95.7552 161.944C95.2566 155.296 94.4257 148.898 93.2623 142.748C92.2652 136.599 90.9356 130.533 89.2737 124.55C87.7779 118.401 86.0329 111.919 84.0386 105.106L127.914 90.1481L138.882 138.012C139.381 140.172 140.046 141.668 140.877 142.499C141.708 143.33 143.287 143.746 145.613 143.746ZM291.316 123.054C297.797 123.054 304.113 124.467 310.262 127.292C316.577 130.118 322.145 133.857 326.964 138.51C331.95 143.164 335.939 148.565 338.93 154.714C341.922 160.863 343.417 167.179 343.417 173.66C343.417 180.308 341.922 186.707 338.93 192.856C335.939 198.839 331.95 204.24 326.964 209.06C322.145 213.713 316.577 217.452 310.262 220.278C304.113 223.103 297.797 224.516 291.316 224.516C284.668 224.516 278.186 223.103 271.871 220.278C265.722 217.452 260.154 213.713 255.169 209.06C250.349 204.24 246.443 198.839 243.452 192.856C240.627 186.707 239.214 180.308 239.214 173.66C239.214 167.179 240.627 160.863 243.452 154.714C246.443 148.565 250.349 143.164 255.169 138.51C260.154 133.857 265.722 130.118 271.871 127.292C278.186 124.467 284.668 123.054 291.316 123.054ZM291.316 181.887C293.476 181.887 295.304 181.056 296.8 179.394C298.462 177.732 299.293 175.821 299.293 173.66C299.293 171.5 298.462 169.672 296.8 168.176C295.304 166.514 293.476 165.683 291.316 165.683C288.989 165.683 286.995 166.514 285.333 168.176C283.837 169.672 283.089 171.5 283.089 173.66C283.089 175.821 283.837 177.732 285.333 179.394C286.995 181.056 288.989 181.887 291.316 181.887ZM414.379 143.746C413.881 140.92 413.548 138.843 413.382 137.513C413.216 136.018 413.133 134.356 413.133 132.527C413.133 126.212 414.213 120.395 416.374 115.077C418.7 109.759 421.858 105.189 425.847 101.366C429.835 97.3775 434.489 94.303 439.807 92.1424C445.125 89.9819 450.859 88.9017 457.008 88.9017C461.163 88.9017 465.816 89.3172 470.968 90.1481C476.12 90.9791 482.436 92.8072 489.914 95.6325L480.192 135.27C474.043 134.106 469.639 133.358 466.98 133.026C464.321 132.694 461.911 132.527 459.75 132.527C454.266 132.527 451.524 134.605 451.524 138.76C451.524 142.915 453.85 144.992 458.504 144.992C462.326 144.992 466.481 144.41 470.968 143.247C475.456 142.084 480.358 140.837 485.676 139.508L495.399 179.145C485.095 182.635 475.539 185.128 466.73 186.623C458.088 188.119 450.277 188.867 443.297 188.867C438.644 188.867 433.325 188.618 427.342 188.119C421.36 187.454 415.709 186.208 410.391 184.38V243.711H365.269V183.383C365.269 175.572 365.02 168.425 364.521 161.944C364.023 155.296 363.192 148.898 362.028 142.748C361.031 136.599 359.702 130.533 358.04 124.55C356.544 118.401 354.799 111.919 352.805 105.106L396.68 90.1481L407.649 138.012C408.147 140.172 408.812 141.668 409.643 142.499C410.474 143.33 412.053 143.746 414.379 143.746Z" fill="#C4C4C4"/>
<path d="M535.513 132.358H577.959V244.672H535.513V217.396H552.288V159.634H535.513V132.358Z" fill="#C4C4C4"/>
<path d="M46.4866 132.358H4.04082V244.672H46.4866V217.396H29.7125V159.634H46.4866V132.358Z" fill="#C4C4C4"/>
<g opacity="0.2">
<path d="M312.162 465.521L320.8 474.081" stroke="#2D2D2D" stroke-width="3" stroke-linecap="round"/>
<path d="M298.967 471.21L306.46 496.497" stroke="#2D2D2D" stroke-width="3" stroke-linecap="round"/>
<path d="M287.648 471.692L280.081 485.913" stroke="#2D2D2D" stroke-width="3" stroke-linecap="round"/>
<path d="M294.494 403.907L296.39 390.587" stroke="#2D2D2D" stroke-width="3" stroke-linecap="round"/>
<path d="M268.042 408.005L259.835 398.803" stroke="#2D2D2D" stroke-width="3" stroke-linecap="round"/>
<path d="M280.497 402.599L272.588 371.126" stroke="#2D2D2D" stroke-width="3" stroke-linecap="round"/>
<path d="M294.181 413.008C295.22 411.306 297.838 412.007 297.887 414.001L298.047 420.465C298.081 421.87 299.516 422.802 300.814 422.262L306.784 419.779C308.626 419.013 310.331 421.119 309.199 422.761L305.529 428.084C304.731 429.242 305.344 430.839 306.711 431.165L313.001 432.665C314.941 433.128 315.083 435.834 313.202 436.497L307.103 438.647C305.778 439.114 305.335 440.767 306.249 441.834L310.456 446.745C311.754 448.259 310.278 450.532 308.366 449.963L302.169 448.117C300.822 447.716 299.492 448.793 299.605 450.194L300.121 456.639C300.281 458.627 297.751 459.598 296.539 458.014L292.611 452.878C291.757 451.762 290.048 451.852 289.315 453.051L285.945 458.57C284.905 460.272 282.288 459.57 282.238 457.577L282.079 451.112C282.044 449.707 280.609 448.775 279.311 449.315L273.341 451.798C271.499 452.564 269.794 450.458 270.926 448.816L274.597 443.493C275.394 442.336 274.781 440.738 273.414 440.412L267.124 438.912C265.184 438.449 265.042 435.743 266.923 435.08L273.022 432.931C274.348 432.464 274.79 430.811 273.876 429.743L269.669 424.833C268.372 423.318 269.848 421.045 271.759 421.615L277.956 423.46C279.303 423.862 280.633 422.785 280.521 421.384L280.004 414.938C279.844 412.95 282.374 411.979 283.586 413.563L287.515 418.699C288.369 419.815 290.078 419.726 290.81 418.526L294.181 413.008Z" fill="#2D2D2D"/>
<path d="M6.79847 406.561C26.3383 432.318 77.6387 474.794 126.521 438.641C187.625 393.449 123.964 308.87 120.069 349.531C116.173 390.191 176.828 468.65 257.408 446.55" stroke="#2D2D2D" stroke-width="3" stroke-linecap="round"/>
<path d="M575.202 470.064C555.662 444.307 504.361 401.831 455.479 437.984C394.375 483.176 458.036 567.755 461.931 527.094C465.827 486.434 405.172 407.975 324.592 430.075" stroke="#2D2D2D" stroke-width="3" stroke-linecap="round"/>
</g>
</svg>
