<svg width="22" height="19" viewBox="0 0 22 19" fill="none" xmlns="http://www.w3.org/2000/svg">
<g clip-path="url(#clip0_222_1617)">
<mask id="path-1-inside-1_222_1617" fill="white">
<path d="M21.0442 14.7612C21.2966 14.8107 21.5429 14.6372 21.591 14.3769L21.9876 12.239C22.0117 12.115 21.9876 11.9849 21.9155 11.8796C21.8434 11.7742 21.7352 11.6998 21.6151 11.6751L20.8158 11.5201C20.7798 11.0677 20.6896 10.6216 20.5514 10.194L21.2245 9.723C21.4408 9.57427 21.4949 9.27062 21.3506 9.05372L20.1668 7.25659C20.0947 7.15124 19.9865 7.07688 19.8664 7.05209C19.7462 7.02731 19.62 7.05209 19.5178 7.12646L18.8448 7.59743C18.5083 7.30617 18.1417 7.05209 17.7451 6.85379L17.8953 6.02959C17.9434 5.76931 17.7751 5.51524 17.5227 5.46566L15.4495 5.05666C15.3293 5.03187 15.2031 5.05666 15.101 5.13102C14.9988 5.20539 14.9267 5.31693 14.9027 5.44087L14.7525 6.26507C14.3138 6.30226 13.8811 6.39521 13.4665 6.54394L13.0098 5.84987C12.9376 5.74453 12.8295 5.67016 12.7093 5.64537C12.5891 5.62059 12.4629 5.64537 12.3608 5.71974L10.6181 6.94055C10.5159 7.01491 10.4438 7.12646 10.4198 7.2504C10.3957 7.37434 10.4198 7.50447 10.4919 7.60982L10.9486 8.30389C10.6661 8.65092 10.4258 9.02894 10.2275 9.43794L9.42822 9.28301C9.30804 9.25822 9.18184 9.28301 9.07969 9.35738C8.97753 9.43174 8.90542 9.54329 8.88138 9.66723L8.48477 11.8052C8.43669 12.0655 8.60495 12.3195 8.85734 12.3691L9.65658 12.524C9.69263 12.9764 9.78277 13.4164 9.927 13.8502L9.25395 14.3212C9.1518 14.3955 9.07969 14.5071 9.05565 14.631C9.03161 14.755 9.05565 14.8851 9.12776 14.9966L10.3116 16.7938C10.3837 16.8991 10.4919 16.9735 10.6121 16.9983C10.7322 17.0231 10.8584 16.9983 10.9606 16.9239L11.6336 16.4529C11.9702 16.7442 12.3367 16.9983 12.7333 17.1966L12.5831 18.0208C12.535 18.2811 12.7033 18.5351 12.9557 18.5847L15.0289 18.9937C15.0289 18.9937 15.089 18.9999 15.119 18.9999C15.3414 18.9999 15.5337 18.8388 15.5817 18.6095L15.732 17.7853C16.1706 17.7481 16.5973 17.6552 17.018 17.5126L17.4747 18.2067C17.5468 18.312 17.6549 18.3864 17.7751 18.4112C17.8953 18.436 18.0215 18.4112 18.1237 18.3368L19.8664 17.116C20.0827 16.9673 20.1368 16.6636 19.9926 16.4467L19.5358 15.7527C19.8183 15.4056 20.0647 15.0276 20.257 14.6186L21.0562 14.7736L21.0442 14.7612ZM19.5358 13.875C19.3135 14.4265 18.995 14.9285 18.5864 15.3623C18.4301 15.5296 18.4121 15.7775 18.5383 15.9696L18.9409 16.5769L17.9734 17.2586L17.5708 16.6512C17.4446 16.4591 17.2103 16.391 17.0059 16.4777C16.4651 16.707 15.8942 16.831 15.3173 16.8372C15.095 16.8372 14.9087 17.0045 14.8666 17.2276L14.7344 17.9526L13.5867 17.7233L13.7189 16.9983C13.7609 16.7752 13.6407 16.5459 13.4364 16.4591C12.9016 16.2298 12.4148 15.9014 11.9942 15.48C11.8319 15.3189 11.5856 15.3003 11.4053 15.4304L10.8164 15.8456L10.1553 14.8479L10.7443 14.4327C10.9305 14.3026 10.9966 14.0609 10.9125 13.8502C10.6902 13.2925 10.57 12.7038 10.564 12.1088C10.564 11.8796 10.4017 11.6874 10.1854 11.6441L9.48832 11.5077L9.71066 10.3241L10.4137 10.4604C10.6301 10.5038 10.8464 10.3799 10.9366 10.1692C11.1589 9.61765 11.4774 9.11569 11.886 8.6819C12.0423 8.51458 12.0603 8.26051 11.9341 8.0746L11.5315 7.46729L12.499 6.78562L12.9016 7.39293C13.0278 7.58503 13.2621 7.6532 13.4665 7.56644C14.0073 7.33715 14.5782 7.21321 15.1551 7.20702C15.3774 7.20702 15.5637 7.0397 15.6058 6.81661L15.738 6.09775L16.8857 6.32704L16.7535 7.05209C16.7115 7.27519 16.8317 7.49828 17.036 7.59123C17.5708 7.82052 18.0576 8.14896 18.4782 8.57036C18.6405 8.73148 18.8868 8.75007 19.0671 8.61993L19.656 8.20473L20.3171 9.20245L19.7281 9.61765C19.5419 9.74779 19.4758 9.98947 19.5599 10.2002C19.7822 10.7579 19.9024 11.3404 19.9084 11.9415C19.9084 12.1708 20.0707 12.3629 20.287 12.4063L20.9901 12.5426L20.7677 13.7263L20.0647 13.5899C19.8483 13.5465 19.626 13.6705 19.5419 13.8812L19.5358 13.875Z"/>
</mask>
<path d="M21.0442 14.7612C21.2966 14.8107 21.5429 14.6372 21.591 14.3769L21.9876 12.239C22.0117 12.115 21.9876 11.9849 21.9155 11.8796C21.8434 11.7742 21.7352 11.6998 21.6151 11.6751L20.8158 11.5201C20.7798 11.0677 20.6896 10.6216 20.5514 10.194L21.2245 9.723C21.4408 9.57427 21.4949 9.27062 21.3506 9.05372L20.1668 7.25659C20.0947 7.15124 19.9865 7.07688 19.8664 7.05209C19.7462 7.02731 19.62 7.05209 19.5178 7.12646L18.8448 7.59743C18.5083 7.30617 18.1417 7.05209 17.7451 6.85379L17.8953 6.02959C17.9434 5.76931 17.7751 5.51524 17.5227 5.46566L15.4495 5.05666C15.3293 5.03187 15.2031 5.05666 15.101 5.13102C14.9988 5.20539 14.9267 5.31693 14.9027 5.44087L14.7525 6.26507C14.3138 6.30226 13.8811 6.39521 13.4665 6.54394L13.0098 5.84987C12.9376 5.74453 12.8295 5.67016 12.7093 5.64537C12.5891 5.62059 12.4629 5.64537 12.3608 5.71974L10.6181 6.94055C10.5159 7.01491 10.4438 7.12646 10.4198 7.2504C10.3957 7.37434 10.4198 7.50447 10.4919 7.60982L10.9486 8.30389C10.6661 8.65092 10.4258 9.02894 10.2275 9.43794L9.42822 9.28301C9.30804 9.25822 9.18184 9.28301 9.07969 9.35738C8.97753 9.43174 8.90542 9.54329 8.88138 9.66723L8.48477 11.8052C8.43669 12.0655 8.60495 12.3195 8.85734 12.3691L9.65658 12.524C9.69263 12.9764 9.78277 13.4164 9.927 13.8502L9.25395 14.3212C9.1518 14.3955 9.07969 14.5071 9.05565 14.631C9.03161 14.755 9.05565 14.8851 9.12776 14.9966L10.3116 16.7938C10.3837 16.8991 10.4919 16.9735 10.6121 16.9983C10.7322 17.0231 10.8584 16.9983 10.9606 16.9239L11.6336 16.4529C11.9702 16.7442 12.3367 16.9983 12.7333 17.1966L12.5831 18.0208C12.535 18.2811 12.7033 18.5351 12.9557 18.5847L15.0289 18.9937C15.0289 18.9937 15.089 18.9999 15.119 18.9999C15.3414 18.9999 15.5337 18.8388 15.5817 18.6095L15.732 17.7853C16.1706 17.7481 16.5973 17.6552 17.018 17.5126L17.4747 18.2067C17.5468 18.312 17.6549 18.3864 17.7751 18.4112C17.8953 18.436 18.0215 18.4112 18.1237 18.3368L19.8664 17.116C20.0827 16.9673 20.1368 16.6636 19.9926 16.4467L19.5358 15.7527C19.8183 15.4056 20.0647 15.0276 20.257 14.6186L21.0562 14.7736L21.0442 14.7612ZM19.5358 13.875C19.3135 14.4265 18.995 14.9285 18.5864 15.3623C18.4301 15.5296 18.4121 15.7775 18.5383 15.9696L18.9409 16.5769L17.9734 17.2586L17.5708 16.6512C17.4446 16.4591 17.2103 16.391 17.0059 16.4777C16.4651 16.707 15.8942 16.831 15.3173 16.8372C15.095 16.8372 14.9087 17.0045 14.8666 17.2276L14.7344 17.9526L13.5867 17.7233L13.7189 16.9983C13.7609 16.7752 13.6407 16.5459 13.4364 16.4591C12.9016 16.2298 12.4148 15.9014 11.9942 15.48C11.8319 15.3189 11.5856 15.3003 11.4053 15.4304L10.8164 15.8456L10.1553 14.8479L10.7443 14.4327C10.9305 14.3026 10.9966 14.0609 10.9125 13.8502C10.6902 13.2925 10.57 12.7038 10.564 12.1088C10.564 11.8796 10.4017 11.6874 10.1854 11.6441L9.48832 11.5077L9.71066 10.3241L10.4137 10.4604C10.6301 10.5038 10.8464 10.3799 10.9366 10.1692C11.1589 9.61765 11.4774 9.11569 11.886 8.6819C12.0423 8.51458 12.0603 8.26051 11.9341 8.0746L11.5315 7.46729L12.499 6.78562L12.9016 7.39293C13.0278 7.58503 13.2621 7.6532 13.4665 7.56644C14.0073 7.33715 14.5782 7.21321 15.1551 7.20702C15.3774 7.20702 15.5637 7.0397 15.6058 6.81661L15.738 6.09775L16.8857 6.32704L16.7535 7.05209C16.7115 7.27519 16.8317 7.49828 17.036 7.59123C17.5708 7.82052 18.0576 8.14896 18.4782 8.57036C18.6405 8.73148 18.8868 8.75007 19.0671 8.61993L19.656 8.20473L20.3171 9.20245L19.7281 9.61765C19.5419 9.74779 19.4758 9.98947 19.5599 10.2002C19.7822 10.7579 19.9024 11.3404 19.9084 11.9415C19.9084 12.1708 20.0707 12.3629 20.287 12.4063L20.9901 12.5426L20.7677 13.7263L20.0647 13.5899C19.8483 13.5465 19.626 13.6705 19.5419 13.8812L19.5358 13.875Z" fill="#484848" stroke="#484848" stroke-width="0.4" mask="url(#path-1-inside-1_222_1617)"/>
<path d="M14.6129 15.3878L14.6125 15.3877C13.7426 15.2168 12.9848 14.7043 12.4873 13.9468C11.9896 13.1892 11.8059 12.279 11.9719 11.3806C12.1378 10.4823 12.6354 9.70064 13.3695 9.1878C14.1037 8.67492 14.9853 8.48588 15.8551 8.65674C17.6538 9.01062 18.8395 10.8056 18.4958 12.6638L18.4957 12.6638C18.1935 14.3015 16.7956 15.4487 15.2338 15.4487C15.0324 15.4487 14.8195 15.4304 14.6129 15.3878ZM16.6328 14.139C17.1526 13.7716 17.5166 13.2262 17.6557 12.5962L17.663 12.6037L17.6807 12.5085C17.9378 11.1194 17.0503 9.77878 15.7062 9.51296C15.5463 9.48125 15.3867 9.46863 15.2338 9.46863C14.7366 9.46863 14.2579 9.62063 13.8411 9.91142L13.8408 9.91159C13.2953 10.2972 12.9215 10.8787 12.7989 11.5484C12.6765 12.2177 12.8111 12.9002 13.1851 13.4628C13.5587 14.025 14.1229 14.4111 14.7736 14.5377C15.4238 14.6642 16.0867 14.525 16.6328 14.139Z" fill="#484848" stroke="#484848" stroke-width="0.1"/>
<mask id="path-3-outside-2_222_1617" maskUnits="userSpaceOnUse" x="-1.00293" y="-0.996826" width="12" height="12" fill="black">
<rect fill="white" x="-1.00293" y="-0.996826" width="12" height="12"/>
<path d="M0.228456 6.7856C0.258503 6.9839 0.432772 7.12024 0.625069 7.09545L1.23201 7.00869C1.36421 7.31854 1.53247 7.616 1.73679 7.88247L1.37022 8.39062C1.31614 8.46498 1.2921 8.56414 1.30412 8.66329C1.31614 8.75624 1.36421 8.843 1.44233 8.90497L2.71029 9.8841C2.86653 10.0018 3.08888 9.97086 3.20305 9.80973L3.56962 9.30158C3.87609 9.42552 4.20059 9.51228 4.5251 9.55566L4.60923 10.1816C4.62124 10.2745 4.66932 10.3613 4.74744 10.4232C4.80753 10.4728 4.88565 10.4976 4.95776 10.4976C4.97579 10.4976 4.99382 10.4976 5.00584 10.4976L6.57426 10.2621C6.76656 10.2311 6.89876 10.0514 6.87473 9.85311L6.7906 9.22722C7.09106 9.09088 7.37951 8.91737 7.63791 8.70667L8.13067 9.08469C8.28691 9.20243 8.50925 9.17144 8.62343 9.01032L9.5729 7.70275C9.68707 7.54163 9.65703 7.31234 9.50079 7.1946L9.00802 6.81658C9.12821 6.50054 9.21234 6.1659 9.2544 5.83126L9.86134 5.73831C9.95148 5.72591 10.0356 5.67633 10.0957 5.59577C10.1498 5.52141 10.1738 5.42226 10.1618 5.3293L9.93946 3.71189C9.90942 3.51358 9.73515 3.37725 9.54285 3.40204L8.93591 3.48879C8.80371 3.17894 8.63545 2.88149 8.43113 2.61502L8.7977 2.10686C8.85178 2.0325 8.87582 1.93335 8.8638 1.8342C8.85178 1.74124 8.80371 1.65448 8.72559 1.59251L7.45763 0.613387C7.38552 0.557614 7.28937 0.532826 7.19322 0.54522C7.10308 0.557614 7.01895 0.60719 6.95886 0.687751L6.59229 1.1959C6.27981 1.07196 5.96132 0.985207 5.63681 0.941828L5.55268 0.315931C5.52264 0.117627 5.34837 -0.0187072 5.15607 0.00608079L3.58765 0.241567C3.49751 0.253961 3.41338 0.303537 3.35329 0.384098C3.2992 0.458462 3.27516 0.557614 3.28718 0.650569L3.37131 1.27647C3.07085 1.4128 2.78841 1.58632 2.524 1.79701L2.03124 1.419C1.95913 1.36322 1.86298 1.33844 1.77284 1.35083C1.6827 1.36322 1.59857 1.419 1.53848 1.49336L0.589013 2.79473C0.53493 2.86909 0.510893 2.96825 0.522911 3.0612C0.53493 3.15416 0.583004 3.24091 0.661125 3.30288L1.15389 3.6809C1.0337 3.99695 0.949571 4.33159 0.907506 4.66622L0.300568 4.75298C0.210428 4.76538 0.126298 4.81495 0.0662055 4.89551C0.0121219 4.96988 -0.0119152 5.06903 0.000103373 5.16818L0.222447 6.7856H0.228456ZM1.28008 5.34789C1.44233 5.32311 1.56853 5.18058 1.58055 5.01326C1.61059 4.56707 1.71876 4.12709 1.90505 3.71808C1.97716 3.56316 1.92908 3.37725 1.79688 3.2719L1.37022 2.93726L1.89904 2.21221L2.33171 2.54685C2.46391 2.6522 2.6502 2.63981 2.77639 2.52826C3.1069 2.2308 3.47948 2.00151 3.88811 1.84659C4.04435 1.79082 4.1405 1.6235 4.11646 1.45618L4.03834 0.910843L4.90969 0.780706L4.98781 1.32604C5.01185 1.49336 5.15006 1.6235 5.31231 1.63589C5.74498 1.66688 6.17164 1.77842 6.56825 1.97053C6.71849 2.04489 6.89876 1.99532 7.00092 1.85898L7.32542 1.4128L8.02851 1.95814L7.70401 2.39812C7.60185 2.53446 7.61387 2.72656 7.72204 2.8567C8.01048 3.19754 8.23283 3.58175 8.38306 4.00934C8.44315 4.17046 8.59939 4.26962 8.76164 4.24483L9.29046 4.16427L9.41666 5.06283L8.88784 5.14339C8.72559 5.16818 8.59939 5.31071 8.58737 5.47803C8.55733 5.92422 8.44916 6.3642 8.26287 6.7732C8.19076 6.92813 8.23884 7.11404 8.37104 7.21939L8.80371 7.55403L8.27489 8.27907L7.84823 7.94444C7.71603 7.83909 7.52974 7.85148 7.40354 7.96303C7.07303 8.26048 6.70046 8.48977 6.29183 8.6447C6.13558 8.70047 6.03944 8.86779 6.06347 9.03511L6.14159 9.58045L5.27025 9.71058L5.19213 9.16525C5.16809 8.99793 5.02988 8.86779 4.86763 8.8554C4.43496 8.82441 4.0083 8.71286 3.61168 8.52076C3.56361 8.49597 3.51554 8.48358 3.46145 8.48358C3.35329 8.48358 3.24512 8.53315 3.17902 8.62611L2.85451 9.07229L2.15143 8.52696L2.47593 8.08697C2.57809 7.95063 2.56607 7.75853 2.4579 7.62839C2.16946 7.28756 1.94711 6.90334 1.79688 6.48195C1.7428 6.32082 1.58055 6.22167 1.4183 6.24646L0.889478 6.32702L0.763283 5.42846L1.2921 5.34789H1.28008Z"/>
</mask>
<path d="M0.228456 6.7856C0.258503 6.9839 0.432772 7.12024 0.625069 7.09545L1.23201 7.00869C1.36421 7.31854 1.53247 7.616 1.73679 7.88247L1.37022 8.39062C1.31614 8.46498 1.2921 8.56414 1.30412 8.66329C1.31614 8.75624 1.36421 8.843 1.44233 8.90497L2.71029 9.8841C2.86653 10.0018 3.08888 9.97086 3.20305 9.80973L3.56962 9.30158C3.87609 9.42552 4.20059 9.51228 4.5251 9.55566L4.60923 10.1816C4.62124 10.2745 4.66932 10.3613 4.74744 10.4232C4.80753 10.4728 4.88565 10.4976 4.95776 10.4976C4.97579 10.4976 4.99382 10.4976 5.00584 10.4976L6.57426 10.2621C6.76656 10.2311 6.89876 10.0514 6.87473 9.85311L6.7906 9.22722C7.09106 9.09088 7.37951 8.91737 7.63791 8.70667L8.13067 9.08469C8.28691 9.20243 8.50925 9.17144 8.62343 9.01032L9.5729 7.70275C9.68707 7.54163 9.65703 7.31234 9.50079 7.1946L9.00802 6.81658C9.12821 6.50054 9.21234 6.1659 9.2544 5.83126L9.86134 5.73831C9.95148 5.72591 10.0356 5.67633 10.0957 5.59577C10.1498 5.52141 10.1738 5.42226 10.1618 5.3293L9.93946 3.71189C9.90942 3.51358 9.73515 3.37725 9.54285 3.40204L8.93591 3.48879C8.80371 3.17894 8.63545 2.88149 8.43113 2.61502L8.7977 2.10686C8.85178 2.0325 8.87582 1.93335 8.8638 1.8342C8.85178 1.74124 8.80371 1.65448 8.72559 1.59251L7.45763 0.613387C7.38552 0.557614 7.28937 0.532826 7.19322 0.54522C7.10308 0.557614 7.01895 0.60719 6.95886 0.687751L6.59229 1.1959C6.27981 1.07196 5.96132 0.985207 5.63681 0.941828L5.55268 0.315931C5.52264 0.117627 5.34837 -0.0187072 5.15607 0.00608079L3.58765 0.241567C3.49751 0.253961 3.41338 0.303537 3.35329 0.384098C3.2992 0.458462 3.27516 0.557614 3.28718 0.650569L3.37131 1.27647C3.07085 1.4128 2.78841 1.58632 2.524 1.79701L2.03124 1.419C1.95913 1.36322 1.86298 1.33844 1.77284 1.35083C1.6827 1.36322 1.59857 1.419 1.53848 1.49336L0.589013 2.79473C0.53493 2.86909 0.510893 2.96825 0.522911 3.0612C0.53493 3.15416 0.583004 3.24091 0.661125 3.30288L1.15389 3.6809C1.0337 3.99695 0.949571 4.33159 0.907506 4.66622L0.300568 4.75298C0.210428 4.76538 0.126298 4.81495 0.0662055 4.89551C0.0121219 4.96988 -0.0119152 5.06903 0.000103373 5.16818L0.222447 6.7856H0.228456ZM1.28008 5.34789C1.44233 5.32311 1.56853 5.18058 1.58055 5.01326C1.61059 4.56707 1.71876 4.12709 1.90505 3.71808C1.97716 3.56316 1.92908 3.37725 1.79688 3.2719L1.37022 2.93726L1.89904 2.21221L2.33171 2.54685C2.46391 2.6522 2.6502 2.63981 2.77639 2.52826C3.1069 2.2308 3.47948 2.00151 3.88811 1.84659C4.04435 1.79082 4.1405 1.6235 4.11646 1.45618L4.03834 0.910843L4.90969 0.780706L4.98781 1.32604C5.01185 1.49336 5.15006 1.6235 5.31231 1.63589C5.74498 1.66688 6.17164 1.77842 6.56825 1.97053C6.71849 2.04489 6.89876 1.99532 7.00092 1.85898L7.32542 1.4128L8.02851 1.95814L7.70401 2.39812C7.60185 2.53446 7.61387 2.72656 7.72204 2.8567C8.01048 3.19754 8.23283 3.58175 8.38306 4.00934C8.44315 4.17046 8.59939 4.26962 8.76164 4.24483L9.29046 4.16427L9.41666 5.06283L8.88784 5.14339C8.72559 5.16818 8.59939 5.31071 8.58737 5.47803C8.55733 5.92422 8.44916 6.3642 8.26287 6.7732C8.19076 6.92813 8.23884 7.11404 8.37104 7.21939L8.80371 7.55403L8.27489 8.27907L7.84823 7.94444C7.71603 7.83909 7.52974 7.85148 7.40354 7.96303C7.07303 8.26048 6.70046 8.48977 6.29183 8.6447C6.13558 8.70047 6.03944 8.86779 6.06347 9.03511L6.14159 9.58045L5.27025 9.71058L5.19213 9.16525C5.16809 8.99793 5.02988 8.86779 4.86763 8.8554C4.43496 8.82441 4.0083 8.71286 3.61168 8.52076C3.56361 8.49597 3.51554 8.48358 3.46145 8.48358C3.35329 8.48358 3.24512 8.53315 3.17902 8.62611L2.85451 9.07229L2.15143 8.52696L2.47593 8.08697C2.57809 7.95063 2.56607 7.75853 2.4579 7.62839C2.16946 7.28756 1.94711 6.90334 1.79688 6.48195C1.7428 6.32082 1.58055 6.22167 1.4183 6.24646L0.889478 6.32702L0.763283 5.42846L1.2921 5.34789H1.28008Z" fill="#484848"/>
<path d="M0.228456 6.7856C0.258503 6.9839 0.432772 7.12024 0.625069 7.09545L1.23201 7.00869C1.36421 7.31854 1.53247 7.616 1.73679 7.88247L1.37022 8.39062C1.31614 8.46498 1.2921 8.56414 1.30412 8.66329C1.31614 8.75624 1.36421 8.843 1.44233 8.90497L2.71029 9.8841C2.86653 10.0018 3.08888 9.97086 3.20305 9.80973L3.56962 9.30158C3.87609 9.42552 4.20059 9.51228 4.5251 9.55566L4.60923 10.1816C4.62124 10.2745 4.66932 10.3613 4.74744 10.4232C4.80753 10.4728 4.88565 10.4976 4.95776 10.4976C4.97579 10.4976 4.99382 10.4976 5.00584 10.4976L6.57426 10.2621C6.76656 10.2311 6.89876 10.0514 6.87473 9.85311L6.7906 9.22722C7.09106 9.09088 7.37951 8.91737 7.63791 8.70667L8.13067 9.08469C8.28691 9.20243 8.50925 9.17144 8.62343 9.01032L9.5729 7.70275C9.68707 7.54163 9.65703 7.31234 9.50079 7.1946L9.00802 6.81658C9.12821 6.50054 9.21234 6.1659 9.2544 5.83126L9.86134 5.73831C9.95148 5.72591 10.0356 5.67633 10.0957 5.59577C10.1498 5.52141 10.1738 5.42226 10.1618 5.3293L9.93946 3.71189C9.90942 3.51358 9.73515 3.37725 9.54285 3.40204L8.93591 3.48879C8.80371 3.17894 8.63545 2.88149 8.43113 2.61502L8.7977 2.10686C8.85178 2.0325 8.87582 1.93335 8.8638 1.8342C8.85178 1.74124 8.80371 1.65448 8.72559 1.59251L7.45763 0.613387C7.38552 0.557614 7.28937 0.532826 7.19322 0.54522C7.10308 0.557614 7.01895 0.60719 6.95886 0.687751L6.59229 1.1959C6.27981 1.07196 5.96132 0.985207 5.63681 0.941828L5.55268 0.315931C5.52264 0.117627 5.34837 -0.0187072 5.15607 0.00608079L3.58765 0.241567C3.49751 0.253961 3.41338 0.303537 3.35329 0.384098C3.2992 0.458462 3.27516 0.557614 3.28718 0.650569L3.37131 1.27647C3.07085 1.4128 2.78841 1.58632 2.524 1.79701L2.03124 1.419C1.95913 1.36322 1.86298 1.33844 1.77284 1.35083C1.6827 1.36322 1.59857 1.419 1.53848 1.49336L0.589013 2.79473C0.53493 2.86909 0.510893 2.96825 0.522911 3.0612C0.53493 3.15416 0.583004 3.24091 0.661125 3.30288L1.15389 3.6809C1.0337 3.99695 0.949571 4.33159 0.907506 4.66622L0.300568 4.75298C0.210428 4.76538 0.126298 4.81495 0.0662055 4.89551C0.0121219 4.96988 -0.0119152 5.06903 0.000103373 5.16818L0.222447 6.7856H0.228456ZM1.28008 5.34789C1.44233 5.32311 1.56853 5.18058 1.58055 5.01326C1.61059 4.56707 1.71876 4.12709 1.90505 3.71808C1.97716 3.56316 1.92908 3.37725 1.79688 3.2719L1.37022 2.93726L1.89904 2.21221L2.33171 2.54685C2.46391 2.6522 2.6502 2.63981 2.77639 2.52826C3.1069 2.2308 3.47948 2.00151 3.88811 1.84659C4.04435 1.79082 4.1405 1.6235 4.11646 1.45618L4.03834 0.910843L4.90969 0.780706L4.98781 1.32604C5.01185 1.49336 5.15006 1.6235 5.31231 1.63589C5.74498 1.66688 6.17164 1.77842 6.56825 1.97053C6.71849 2.04489 6.89876 1.99532 7.00092 1.85898L7.32542 1.4128L8.02851 1.95814L7.70401 2.39812C7.60185 2.53446 7.61387 2.72656 7.72204 2.8567C8.01048 3.19754 8.23283 3.58175 8.38306 4.00934C8.44315 4.17046 8.59939 4.26962 8.76164 4.24483L9.29046 4.16427L9.41666 5.06283L8.88784 5.14339C8.72559 5.16818 8.59939 5.31071 8.58737 5.47803C8.55733 5.92422 8.44916 6.3642 8.26287 6.7732C8.19076 6.92813 8.23884 7.11404 8.37104 7.21939L8.80371 7.55403L8.27489 8.27907L7.84823 7.94444C7.71603 7.83909 7.52974 7.85148 7.40354 7.96303C7.07303 8.26048 6.70046 8.48977 6.29183 8.6447C6.13558 8.70047 6.03944 8.86779 6.06347 9.03511L6.14159 9.58045L5.27025 9.71058L5.19213 9.16525C5.16809 8.99793 5.02988 8.86779 4.86763 8.8554C4.43496 8.82441 4.0083 8.71286 3.61168 8.52076C3.56361 8.49597 3.51554 8.48358 3.46145 8.48358C3.35329 8.48358 3.24512 8.53315 3.17902 8.62611L2.85451 9.07229L2.15143 8.52696L2.47593 8.08697C2.57809 7.95063 2.56607 7.75853 2.4579 7.62839C2.16946 7.28756 1.94711 6.90334 1.79688 6.48195C1.7428 6.32082 1.58055 6.22167 1.4183 6.24646L0.889478 6.32702L0.763283 5.42846L1.2921 5.34789H1.28008Z" stroke="#484848" stroke-width="0.2" mask="url(#path-3-outside-2_222_1617)"/>
<path d="M5.08354 7.80775H5.03354V7.81342C3.84213 7.78846 2.80172 6.87358 2.6272 5.61377L2.62719 5.61374C2.43247 4.21419 3.37672 2.9144 4.7303 2.71412C6.08362 2.51389 7.34523 3.48473 7.53989 4.88388C7.73461 6.28343 6.79037 7.58322 5.43678 7.7835L5.43646 7.78355C5.31955 7.80163 5.20206 7.80775 5.08354 7.80775ZM4.81833 3.32778L4.81807 3.32782C3.79178 3.47446 3.07746 4.46147 3.22521 5.51588C3.36703 6.57084 4.32289 7.31031 5.34917 7.15739C6.37542 7.01067 7.08968 6.02361 6.94185 4.9692L6.94185 4.96915C6.80629 4.00968 6.00478 3.30873 5.08354 3.30873C4.99688 3.30873 4.91046 3.31511 4.81833 3.32778Z" fill="#484848" stroke="#484848" stroke-width="0.1"/>
</g>
<defs>
<clipPath id="clip0_222_1617">
<rect width="22" height="19" fill="white"/>
</clipPath>
</defs>
</svg>
