<svg width="24" height="24" viewBox="0 0 24 24" fill="none" xmlns="http://www.w3.org/2000/svg">
<path d="M16.96 6.16992C18.96 7.55992 20.34 9.76992 20.62 12.3199" stroke="#484848" stroke-width="1.5" stroke-linecap="round" stroke-linejoin="round"/>
<path d="M3.49023 12.3697C3.75023 9.82973 5.11023 7.61973 7.09023 6.21973" stroke="#484848" stroke-width="1.5" stroke-linecap="round" stroke-linejoin="round"/>
<path d="M8.18945 20.9399C9.34945 21.5299 10.6695 21.8599 12.0595 21.8599C13.3995 21.8599 14.6595 21.5599 15.7895 21.0099" stroke="#484848" stroke-width="1.5" stroke-linecap="round" stroke-linejoin="round"/>
<path d="M12.0593 7.70014C13.5946 7.70014 14.8393 6.45549 14.8393 4.92014C14.8393 3.38479 13.5946 2.14014 12.0593 2.14014C10.5239 2.14014 9.2793 3.38479 9.2793 4.92014C9.2793 6.45549 10.5239 7.70014 12.0593 7.70014Z" stroke="#484848" stroke-width="1.5" stroke-linecap="round" stroke-linejoin="round"/>
<path d="M4.8298 19.9199C6.36516 19.9199 7.60981 18.6752 7.60981 17.1399C7.60981 15.6045 6.36516 14.3599 4.8298 14.3599C3.29445 14.3599 2.0498 15.6045 2.0498 17.1399C2.0498 18.6752 3.29445 19.9199 4.8298 19.9199Z" stroke="#484848" stroke-width="1.5" stroke-linecap="round" stroke-linejoin="round"/>
<path d="M19.1706 19.9199C20.706 19.9199 21.9506 18.6752 21.9506 17.1399C21.9506 15.6045 20.706 14.3599 19.1706 14.3599C17.6353 14.3599 16.3906 15.6045 16.3906 17.1399C16.3906 18.6752 17.6353 19.9199 19.1706 19.9199Z" stroke="#484848" stroke-width="1.5" stroke-linecap="round" stroke-linejoin="round"/>
</svg>
