<svg width="20" height="22" viewBox="0 0 20 22" fill="none" xmlns="http://www.w3.org/2000/svg">
<path d="M16 17.8597H15.24C14.44 17.8597 13.68 18.1697 13.12 18.7297L11.41 20.4198C10.63 21.1898 9.36 21.1898 8.58 20.4198L6.87 18.7297C6.31 18.1697 5.54 17.8597 4.75 17.8597H4C2.34 17.8597 1 16.5298 1 14.8898V3.97974C1 2.33974 2.34 1.00977 4 1.00977H16C17.66 1.00977 19 2.33974 19 3.97974V14.8898C19 16.5198 17.66 17.8597 16 17.8597Z" stroke="#484848" stroke-width="1.5" stroke-miterlimit="10" stroke-linecap="round" stroke-linejoin="round"/>
<path d="M5 8.15979C5 7.22979 5.76 6.46973 6.69 6.46973C7.62 6.46973 8.38 7.22979 8.38 8.15979C8.38 10.0398 5.71 10.2398 5.12 12.0298C5 12.3998 5.31 12.7698 5.7 12.7698H8.38" stroke="#484848" stroke-width="1.5" stroke-linecap="round" stroke-linejoin="round"/>
<path d="M14.0398 12.7599V7.04991C14.0398 6.78991 13.8698 6.55985 13.6198 6.48985C13.3698 6.41985 13.0998 6.51985 12.9598 6.73985C12.2398 7.89985 11.4598 9.21986 10.7798 10.3799C10.6698 10.5699 10.6698 10.8199 10.7798 11.0099C10.8898 11.1999 11.0998 11.3198 11.3298 11.3198H14.9998" stroke="#484848" stroke-width="1.5" stroke-linecap="round" stroke-linejoin="round"/>
</svg>
